<svg width="2048" height="1537" viewBox="0 0 2048 1537" fill="none" xmlns="http://www.w3.org/2000/svg">
<path d="M996.5 571C1018.1 583.4 1029.83 599.5 1033 606L1038.5 626C1036.67 641 1033 672.6 1033 679C1033 685.4 1036.67 706.333 1038.5 716V739L1033 772C1029 779.167 1021 802.9 1021 840.5V846.5V879V895V913V926.5V935C1018.33 941.167 1013 954.8 1013 960V971V997V1030.5C1013 1033.5 1017.5 1051.5 1013 1058.5C1008.5 1065.5 1017.5 1076 1013 1081.5C1008.5 1087 1013 1093 1013 1102.5V1134V1151L1004.5 1170.5V1192.5L1031.5 1536H573C572.167 1534.17 570 1529 568 1523C565.5 1515.5 569 1519 568 1509C567.2 1501 565.667 1498.33 565 1498C569.667 1482.67 579 1451.1 579 1447.5V1441.5C577 1436 573 1424 573 1420C573 1415 577 1412 579 1405.5C580.6 1400.3 579.667 1397 579 1396C581.5 1379.33 586.5 1345.4 586.5 1343V1337C586.5 1334 587 1329.5 586.5 1325.5C586.1 1322.3 582.667 1322.5 581 1323C579 1322.17 574.6 1320 573 1318C571.4 1316 567.333 1309.17 565.5 1306C559.667 1293.5 548 1267.7 548 1264.5C548 1260.5 542.5 1258.5 542.5 1252C542.5 1245.5 543 1243.5 542.5 1241C542.1 1239 546 1224.17 548 1217C546.167 1216.83 542.1 1216 540.5 1214C538.9 1212 537.833 1210.5 537.5 1210C537.833 1209.5 538.3 1206.9 537.5 1200.5C536.7 1194.1 530.833 1192.5 528 1192.5C517.5 1179.17 496.1 1152.2 494.5 1151C492.5 1149.5 492.5 1148.5 492.5 1139.5C492.5 1136.28 492.308 1134.98 492.13 1134.52C491.861 1133.83 491.625 1135.07 492.13 1134.52C492.225 1134.42 492.347 1134.25 492.5 1134C494 1131.5 496 1128 496.5 1126C496.9 1124.4 501.667 1128.33 504 1130.5V1118V1107.5C504 1104 502.5 1105 504 1102.5C505.5 1100 506 1095.5 508.5 1093C511 1090.5 508.5 1091 508.5 1089C508.5 1087 508.5 1085.5 511 1081.5C513.5 1077.5 511 1078 508.5 1072C506.5 1067.2 506 1065 506 1064.5C506.833 1060.67 508.5 1051.8 508.5 1047C508.5 1045 508.5 1044 511 1042.5C513 1041.3 511.833 1040 511 1039.5C512.167 1038.83 514.5 1037.2 514.5 1036C514.5 1034.5 518.5 1032.5 518.5 1030.5V1027.5V1021C518.5 1018.5 516.5 1018.5 516.5 1016.5C516.5 1014.9 515.167 1013.83 514.5 1013.5L508.5 1009C507.667 1000 506 981.6 506 980V976.5V971C506 969 509 968 508.5 965.5C508 963 508.5 963 506 960C503.5 957 506 956 506 953.5V947.5V941V935C506 933 506.5 933.5 511 926.5C515.5 919.5 511 924.5 511 921.5C511 918.5 513.5 918 511 913C508.5 908 511 905 511 899.5V895V886.5V870L516.5 857.5L520.5 846.5L526 830.5V823.5C527.167 818.5 529.9 808 531.5 806C533.1 804 536.167 796.833 537.5 793.5L541.5 778C543.333 773.167 547.2 762.9 548 760.5C548.8 758.1 553.333 746.833 555.5 741.5L562 722.5L577.5 679C577.833 677.5 578.8 673.8 580 671C581.5 667.5 581.5 665.5 583 662.5C584.2 660.1 585.5 658.167 586 657.5L590 648.5L599 633L606 615.5L621 598.5L635 581L646.5 571L663.5 560.5L716.5 537.5L725.5 533C726.5 532.5 733.5 529.5 735 529C736.2 528.6 740.167 528.167 742 528L745.5 524L763.5 504V496.5L768 493C767.333 493.167 765.7 493.4 764.5 493C763 492.5 762.5 492 761.5 491C760.5 490 759.5 490 758 488.5C756.5 487 756.5 486.5 754.5 483.5C752.5 480.5 752 480.5 749 477.5C746 474.5 743.5 473 739.5 469.5C735.5 466 735.5 465 734.5 464C733.5 463 729.5 458 728 456C726.5 454 724 451.5 723 450C722.2 448.8 719.667 445.833 718.5 444.5L715 422L714.5 421V414C714.5 411.5 714.5 411 716 407.5C717.5 404 719 400 719 396.5C719 395.7 717 392.833 716 391.5C716.833 384.5 718.6 369.7 719 366.5C719.5 362.5 719 361.5 720.5 359.5C722 357.5 723 356 723 354V348C723 345 723 338 724 335.5C724.8 333.5 727 329.667 728 328C731.167 324.833 738.8 318.5 744 318.5C750.5 318.5 749.5 313 752 311.5C754.5 310 758 303.5 763 303.5C768 303.5 771 291.5 772.5 288.5C774 285.5 776 284 781 280C786 276 790 274 794.5 274C799 274 807.5 265.5 810.5 265.5H824.5H842C845 265.5 854 265 864 265.5C874 266 879 271 885.5 274C890.7 276.4 902.667 281.667 908 284C912.333 288.667 922 299.1 926 303.5C931 309 935 313 941 318.5C947 324 941 323.5 948 332C955 340.5 952.5 340 957.5 352C962.5 364 957.5 361.5 957.5 370.5C957.5 377.7 962.167 392.833 964.5 399.5C965.5 402.333 967.5 408.6 967.5 411C967.5 413.4 965.5 419.333 964.5 422C963.5 424 960.7 429.1 957.5 433.5C954.3 437.9 952.833 438.667 952.5 438.5L941 441.5L935 450V459.5V477C935 482.5 936.5 483.5 935 490C933.5 496.5 932 498.5 932 504C932 509.5 932.5 511.5 932 516C931.5 520.5 928 525.5 926 531.5C924.4 536.3 922 540.5 921 542H948C955.167 546.5 974.9 558.6 996.5 571Z" fill="#D9D9D9"/>
<path d="M1033 606C1029.83 599.5 1018.1 583.4 996.5 571C974.9 558.6 955.167 546.5 948 542H921C922 540.5 924.4 536.3 926 531.5C928 525.5 931.5 520.5 932 516C932.5 511.5 932 509.5 932 504C932 498.5 933.5 496.5 935 490C936.5 483.5 935 482.5 935 477C935 471.5 935 464 935 459.5C935 455.9 935 451.667 935 450L941 441.5L952.5 438.5C952.833 438.667 954.3 437.9 957.5 433.5C960.7 429.1 963.5 424 964.5 422C965.5 419.333 967.5 413.4 967.5 411C967.5 408.6 965.5 402.333 964.5 399.5C962.167 392.833 957.5 377.7 957.5 370.5C957.5 361.5 962.5 364 957.5 352C952.5 340 955 340.5 948 332C941 323.5 947 324 941 318.5C935 313 931 309 926 303.5C922 299.1 912.333 288.667 908 284C902.667 281.667 890.7 276.4 885.5 274C879 271 874 266 864 265.5C854 265 845 265.5 842 265.5C839.6 265.5 829.333 265.5 824.5 265.5C820.833 265.5 812.9 265.5 810.5 265.5C807.5 265.5 799 274 794.5 274C790 274 786 276 781 280C776 284 774 285.5 772.5 288.5C771 291.5 768 303.5 763 303.5C758 303.5 754.5 310 752 311.5C749.5 313 750.5 318.5 744 318.5C738.8 318.5 731.167 324.833 728 328C727 329.667 724.8 333.5 724 335.5C723 338 723 345 723 348C723 351 723 352 723 354C723 356 722 357.5 720.5 359.5C719 361.5 719.5 362.5 719 366.5C718.6 369.7 716.833 384.5 716 391.5C717 392.833 719 395.7 719 396.5C719 400 717.5 404 716 407.5C714.5 411 714.5 411.5 714.5 414C714.5 416 714.5 419.5 714.5 421L715 422L718.5 444.5C719.667 445.833 722.2 448.8 723 450C724 451.5 726.5 454 728 456C729.5 458 733.5 463 734.5 464C735.5 465 735.5 466 739.5 469.5C743.5 473 746 474.5 749 477.5C752 480.5 752.5 480.5 754.5 483.5C756.5 486.5 756.5 487 758 488.5C759.5 490 760.5 490 761.5 491C762.5 492 763 492.5 764.5 493C765.7 493.4 767.333 493.167 768 493L763.5 496.5V504L745.5 524L742 528C740.167 528.167 736.2 528.6 735 529C733.5 529.5 726.5 532.5 725.5 533C724.7 533.4 719.167 536.167 716.5 537.5L663.5 560.5L646.5 571L635 581L621 598.5L606 615.5L599 633L590 648.5L586 657.5C585.5 658.167 584.2 660.1 583 662.5C581.5 665.5 581.5 667.5 580 671C578.8 673.8 577.833 677.5 577.5 679L562 722.5L555.5 741.5C553.333 746.833 548.8 758.1 548 760.5C547.2 762.9 543.333 773.167 541.5 778L537.5 793.5C536.167 796.833 533.1 804 531.5 806C529.9 808 527.167 818.5 526 823.5V830.5L520.5 846.5L516.5 857.5L511 870V886.5V895C511 894.667 511 895.1 511 899.5C511 905 508.5 908 511 913C513.5 918 511 918.5 511 921.5C511 924.5 515.5 919.5 511 926.5C506.5 933.5 506 933 506 935C506 937 506 937.5 506 941C506 944.5 506 942 506 947.5C506 953 506 951 506 953.5C506 956 503.5 957 506 960C508.5 963 508 963 508.5 965.5C509 968 506 969 506 971C506 973 506 974 506 976.5C506 979 506 978 506 980C506 981.6 507.667 1000 508.5 1009L514.5 1013.5C515.167 1013.83 516.5 1014.9 516.5 1016.5C516.5 1018.5 518.5 1018.5 518.5 1021C518.5 1023.5 518.5 1026 518.5 1027.5C518.5 1029 518.5 1028.5 518.5 1030.5C518.5 1032.5 514.5 1034.5 514.5 1036C514.5 1037.2 512.167 1038.83 511 1039.5C511.833 1040 513 1041.3 511 1042.5C508.5 1044 508.5 1045 508.5 1047C508.5 1051.8 506.833 1060.67 506 1064.5C506 1065 506.5 1067.2 508.5 1072C511 1078 513.5 1077.5 511 1081.5C508.5 1085.5 508.5 1087 508.5 1089C508.5 1091 511 1090.5 508.5 1093C506 1095.5 505.5 1100 504 1102.5C502.5 1105 504 1104 504 1107.5C504 1111 504 1113 504 1118C504 1122 504 1128 504 1130.5C501.667 1128.33 496.9 1124.4 496.5 1126C496 1128 494 1131.5 492.5 1134C491 1136.5 492.5 1130.5 492.5 1139.5C492.5 1148.5 492.5 1149.5 494.5 1151C496.1 1152.2 517.5 1179.17 528 1192.5C530.833 1192.5 536.7 1194.1 537.5 1200.5C538.3 1206.9 537.833 1209.5 537.5 1210C537.833 1210.5 538.9 1212 540.5 1214C542.1 1216 546.167 1216.83 548 1217C546 1224.17 542.1 1239 542.5 1241C543 1243.5 542.5 1245.5 542.5 1252C542.5 1258.5 548 1260.5 548 1264.5C548 1267.7 559.667 1293.5 565.5 1306C567.333 1309.17 571.4 1316 573 1318C574.6 1320 579 1322.17 581 1323C582.667 1322.5 586.1 1322.3 586.5 1325.5C587 1329.5 586.5 1334 586.5 1337C586.5 1340 586.5 1340 586.5 1343C586.5 1345.4 581.5 1379.33 579 1396C579.667 1397 580.6 1400.3 579 1405.5C577 1412 573 1415 573 1420C573 1424 577 1436 579 1441.5C579 1442 579 1443.9 579 1447.5C579 1451.1 569.667 1482.67 565 1498C565.667 1498.33 567.2 1501 568 1509C569 1519 565.5 1515.5 568 1523C570 1529 572.167 1534.17 573 1536H1031.5L1004.5 1192.5V1170.5L1013 1151V1134C1013 1126.67 1013 1110.1 1013 1102.5C1013 1093 1008.5 1087 1013 1081.5C1017.5 1076 1008.5 1065.5 1013 1058.5C1017.5 1051.5 1013 1033.5 1013 1030.5C1013 1028.1 1013 1007.17 1013 997V971C1013 969.5 1013 965.2 1013 960C1013 954.8 1018.33 941.167 1021 935V926.5C1021 924.333 1021 918.6 1021 913C1021 907.4 1021 898.667 1021 895C1021 892.667 1021 886.2 1021 879C1021 871.8 1021 854.333 1021 846.5C1021 847.833 1021 848.5 1021 840.5C1021 802.9 1029 779.167 1033 772L1038.5 739V716C1036.67 706.333 1033 685.4 1033 679C1033 672.6 1036.67 641 1038.5 626L1033 606Z" stroke="black"/>
</svg>
