<svg width="1738" height="1169" viewBox="0 0 1738 1169" fill="none" xmlns="http://www.w3.org/2000/svg">
<path d="M988 743L993 735L988 730C986 727.667 980.8 722.6 976 721C971.2 719.4 964 715.667 961 714L958 710V701C958 700 957 696.4 953 690C949 683.6 954.667 672.667 958 668V660L953 649L928 634L921 628L916 622C914.333 621 912 618.6 916 617C921 615 910 612 928 612C942.4 612 954 608 958 606H976H988C993 617 994 616 1000 622C1008 640 1003 650 1007 655C1010.2 659 1017 660 1020 660C1022.67 660.333 1029 659.8 1033 655C1038 649 1033 649 1047 649C1058.2 649 1063.67 639 1065 634L1070 628V617C1070 613 1066.67 608 1065 606V595V568L1070 561L1074 558C1074.33 559.333 1075.8 559.2 1079 548C1083 534 1087 524 1091 520C1095 516 1105 507 1112 503C1117.6 499.8 1125.67 497 1129 496H1138H1145H1154H1186L1201 514C1198.67 513 1195.4 512.8 1201 520C1208 529 1210 543 1210 548V568V584V595V601L1215 612L1201 622L1196 634C1202 639.333 1215.2 651 1220 655C1226 660 1232 668 1237 679C1244 714 1237 721 1237 735C1237 749 1232 751 1229 759C1226 767 1220 773 1220 786C1220 799 1215 803 1215 808C1215 813 1210 802 1215 824C1220 862 1220 862 1220 869C1220 876 1225 872 1220 885C1215 898 1234 887 1215 907C1199.8 923 1189.33 922.333 1186 920H1180L1174 907L1167 920V940V956V974L1151 986C1149.67 990 1146 995.6 1142 986C1137 974 1132 974 1128 965C1124.8 957.8 1114.67 950 1110 947C1109.33 946 1106.6 943.2 1101 940C1095.4 936.8 1084 931.333 1079 929C1071.8 929 1061.33 936.333 1057 940H1047H1033H1020L1007 947V965C1004.67 966 1000 969.2 1000 974C1000 983.6 1004.67 993.333 1007 997L1020 1012L1038 1025L1025 1030H1012C1007 1030 1000 1022 1000 1030C1000 1036.4 1008 1045.33 1012 1049C1013.67 1051 1018.6 1055.2 1025 1056C1033 1057 1037 1056 1047 1056C1055 1056 1079 1094 1090 1113L1128 1131C1132.67 1129 1143.8 1129.4 1151 1147C1157.64 1163.24 1174.45 1167.67 1183.82 1168H1186C1185.33 1168.03 1184.6 1168.03 1183.82 1168H990L1000 1122C998.667 1116.33 994.8 1104 990 1100C985.2 1096 978.667 1082.33 976 1076C973 1068.33 967.4 1051.2 969 1044C971 1035 969 1017 969 1012C969 1008 971 990.333 972 982C972.667 976.333 975.6 963.2 982 956C990 947 994 937 997 933C999.4 929.8 1004.67 918.333 1007 913C1009.33 911.333 1012.6 906.8 1007 902C1001.4 897.2 998 888.667 997 885L1000 857V835V808C1000.67 804.667 1003 796.8 1007 792C1009.96 788.447 1015.66 779.746 1018.42 778.301L1007 766L1012 759L1007 749L988 743Z" fill="#D9D9D9"/>
<path d="M988 743L993 735L988 730C986 727.667 980.8 722.6 976 721C971.2 719.4 964 715.667 961 714L958 710V701C958 700 957 696.4 953 690C949 683.6 954.667 672.667 958 668V660L953 649L928 634L921 628L916 622C914.333 621 912 618.6 916 617C921 615 910 612 928 612C942.4 612 954 608 958 606H976C978.333 606 984 606 988 606C993 617 994 616 1000 622C1008 640 1003 650 1007 655C1010.2 659 1017 660 1020 660C1022.67 660.333 1029 659.8 1033 655C1038 649 1033 649 1047 649C1058.2 649 1063.67 639 1065 634L1070 628C1070 626 1070 621 1070 617C1070 613 1066.67 608 1065 606C1065 608 1065 608.6 1065 595C1065 581.4 1065 571.333 1065 568L1070 561L1074 558C1074.33 559.333 1075.8 559.2 1079 548C1083 534 1087 524 1091 520C1095 516 1105 507 1112 503C1117.6 499.8 1125.67 497 1129 496H1138H1145C1145.33 496 1147.6 496 1154 496C1160.4 496 1178 496 1186 496L1201 514C1198.67 513 1195.4 512.8 1201 520C1208 529 1210 543 1210 548C1210 552 1210 563 1210 568V584V595V601L1215 612L1201 622L1196 634C1202 639.333 1215.2 651 1220 655C1226 660 1232 668 1237 679C1244 714 1237 721 1237 735C1237 749 1232 751 1229 759C1226 767 1220 773 1220 786C1220 799 1215 803 1215 808C1215 813 1210 802 1215 824C1220 862 1220 862 1220 869C1220 876 1225 872 1220 885C1215 898 1234 887 1215 907C1199.8 923 1189.33 922.333 1186 920H1180L1174 907L1167 920V940C1167 943.333 1167 951.2 1167 956C1167 960.8 1167 970 1167 974L1151 986C1149.67 990 1146 995.6 1142 986C1137 974 1132 974 1128 965C1124.8 957.8 1114.67 950 1110 947C1109.33 946 1106.6 943.2 1101 940C1095.4 936.8 1084 931.333 1079 929C1071.8 929 1061.33 936.333 1057 940H1047C1044.67 940 1038.6 940 1033 940C1027.4 940 1022 940 1020 940L1007 947V965C1004.67 966 1000 969.2 1000 974C1000 983.6 1004.67 993.333 1007 997L1020 1012L1038 1025L1025 1030C1022.33 1030 1016 1030 1012 1030C1007 1030 1000 1022 1000 1030C1000 1036.4 1008 1045.33 1012 1049C1013.67 1051 1018.6 1055.2 1025 1056C1033 1057 1037 1056 1047 1056C1055 1056 1079 1094 1090 1113L1128 1131C1132.67 1129 1143.8 1129.4 1151 1147C1158.2 1164.6 1177.33 1168.33 1186 1168H990L1000 1122C998.667 1116.33 994.8 1104 990 1100C985.2 1096 978.667 1082.33 976 1076C973 1068.33 967.4 1051.2 969 1044C971 1035 969 1017 969 1012C969 1008 971 990.333 972 982C972.667 976.333 975.6 963.2 982 956C990 947 994 937 997 933C999.4 929.8 1004.67 918.333 1007 913C1009.33 911.333 1012.6 906.8 1007 902C1001.4 897.2 998 888.667 997 885L1000 857C1000 853.333 1000 843.8 1000 835C1000 826.2 1000 813.333 1000 808C1000.67 804.667 1003 796.8 1007 792C1011 787.2 1020 773 1020 780L1007 766L1012 759L1007 749L988 743Z" stroke="black"/>
</svg>
