<svg width="1748" height="2480" viewBox="0 0 1748 2480" fill="none" xmlns="http://www.w3.org/2000/svg">
<path d="M876 1198.5L869 1205H802.5L801 1010H1088.5L1087 1203H1019V1198.5V1194.5L1017 1191.5C1016.33 1190.5 1015 1188 1015 1186V1179.5C1014.5 1178 1013.2 1174.8 1012 1174C1010.8 1173.2 1011.5 1170.33 1012 1169L1010 1163C1009.67 1162.33 1007.9 1160 1003.5 1156C1002.5 1156 1001 1161 998.5 1154C998.1 1152.4 997 1151.33 996.5 1151C995.333 1150.17 992.8 1147.7 992 1144.5C991.2 1141.3 989.333 1141.17 988.5 1141.5L986.5 1137C986.5 1136 986.9 1134 988.5 1134C990.5 1134 988.5 1126 988.5 1122.5C988.5 1119 988 1120 986.5 1112C985.7 1108.4 984.833 1109.17 984.5 1110L983 1107V1102V1097.5C982.667 1096.83 981.5 1093.5 979.5 1085.5C979.1 1081.1 978 1081.67 977.5 1082.5L974 1078.5C973.167 1078.5 971.1 1077.8 969.5 1075C967.9 1072.2 967.167 1072.5 967 1073L964 1070.5H961H955C953.167 1070.33 948.8 1070.1 946 1070.5C943.2 1070.9 942.5 1072.33 942.5 1073C941.333 1073.33 938.8 1074.2 938 1075C937 1076 934.5 1077.5 932.5 1078.5C930.9 1079.3 930.5 1080.5 930.5 1081L929 1082.5H926.5C925.333 1083 923 1084.3 923 1085.5V1091V1097.5L919.5 1104.5L923 1109V1112V1116.5L934.5 1119V1122.5H929L923 1126L917 1134C916 1135.83 914 1139.9 914 1141.5V1144.5V1148.5C914 1149.5 912.5 1153.5 911 1156C909.5 1158.5 909.5 1158.5 907.5 1161C905.5 1163.5 905.5 1164 904 1165.5C902.5 1167 903 1168 902 1169C901.2 1169.8 900.667 1171 900.5 1171.5L898 1174H893.5C892.833 1174.5 891.3 1175.7 890.5 1176.5C889.5 1177.5 890 1177.5 888.5 1179.5C887 1181.5 889 1180.5 888.5 1182C888 1183.5 888.5 1182.5 887.5 1184C886.7 1185.2 885.833 1185.83 885.5 1186C884.833 1187 882.6 1189.5 879 1191.5C874.5 1194 878.5 1192 877.5 1194.5C876.7 1196.5 876.167 1198 876 1198.5Z" fill="#460606" stroke="black"/>
</svg>
