<svg width="206" height="342" viewBox="0 0 206 342" fill="none" xmlns="http://www.w3.org/2000/svg">
<path d="M15.8835 130.655V121.717C15.7989 121.758 15.8125 121.726 15.8835 121.655V121.717C16.1958 121.567 17.8467 120.432 22.8835 116.655C30.8835 110.655 22.8835 105.655 22.8835 92.6549V53.6549C22.8835 48.6549 8.88348 45.6549 15.8835 38.6549C22.8835 31.6549 14.8835 28.6549 22.8835 23.6549C29.2834 19.6549 52.2168 11.3216 62.8834 7.65492L84.8834 1.65492H99.8834C100.55 -0.0117425 103.083 -1.14508 107.883 7.65492C113.883 18.6549 112.883 14.6549 114.883 23.6549C116.483 30.8549 118.217 39.9882 118.883 43.6549C120.883 46.6549 124.283 53.8549 121.883 58.6549C119.483 63.4549 124.883 73.3216 127.883 77.6549L144.883 84.6549H154.883C155.217 84.6549 157.683 86.2549 164.883 92.6549C176.083 103.855 184.217 113.322 186.883 116.655L198.883 130.655C200.55 131.322 204.083 134.055 204.883 139.655C205.883 146.655 204.883 151.655 204.883 156.655C204.883 160.655 200.883 165.655 198.883 167.655C200.55 165.988 200.483 163.655 186.883 167.655C164.883 196.655 164.883 200.655 164.883 205.655C164.883 210.655 172.883 217.655 174.883 223.655C174.883 242.055 168.217 252.655 164.883 255.655V264.655C161.55 266.988 154.883 271.855 154.883 272.655C154.883 273.655 153.883 263.655 144.883 272.655C124.083 286.255 111.55 289.655 107.883 289.655C104.55 292.655 95.2834 296.855 84.8834 289.655C71.8834 280.655 68.8834 277.655 62.8834 277.655H47.8834L29.8834 272.655H22.8835V285.155L34.3834 289.655C37.8834 291.488 45.4834 295.455 47.8834 296.655C50.2834 297.855 55.5501 299.822 57.8834 300.655V310.155C57.8834 312.655 57.8834 313.155 50.8834 316.655C45.2834 319.455 29.8835 323.488 22.8835 325.155L15.8835 333.155V335.655C15.0501 338.322 12.7834 342.855 10.3834 339.655C4.38344 332.455 1.88344 321.322 1.38344 316.655V310.155C0.716776 306.322 -0.216557 298.255 1.38344 296.655C3.38344 294.655 4.38342 284.655 4.88342 281.155C5.28342 278.355 8.71677 265.988 10.3834 260.155L15.8835 252.155L34.3834 247.155H47.8834L57.8834 240.155C60.8834 238.655 67.8834 234.755 71.8834 231.155C76.8834 226.655 75.8835 233.155 84.8834 223.655C92.0834 216.055 95.5501 208.488 96.3834 205.655C102.783 202.055 106.717 199.155 107.883 198.155L112.883 189.155L107.883 185.155H99.3834L101.883 178.155C102.717 176.322 103.883 172.155 101.883 170.155C99.3834 167.655 100.883 161.155 96.3834 160.655C91.8834 160.155 74.8834 160.655 71.8834 160.655H57.8834C50.8834 160.655 53.3834 158.655 42.3834 160.655C39.9834 160.655 55.0501 153.322 62.8834 149.655C64.0501 151.155 66.3834 153.255 66.3834 149.655C66.3834 146.055 64.0501 141.488 62.8834 139.655H47.8834C44.2168 137.988 35.4834 135.155 29.8834 137.155L15.8835 142.155L10.3834 149.655C8.71676 149.155 5.88341 147.555 7.88342 145.155C9.88344 142.755 14.0501 134.488 15.8835 130.655Z" fill="#D9D9D9"/>
<path d="M15.8835 130.655V121.655C15.5501 121.988 16.4835 121.455 22.8835 116.655C30.8835 110.655 22.8835 105.655 22.8835 92.6549C22.8835 64.6549 22.8835 58.6549 22.8835 53.6549C22.8835 48.6549 8.88348 45.6549 15.8835 38.6549C22.8835 31.6549 14.8835 28.6549 22.8835 23.6549C29.2834 19.6549 52.2168 11.3216 62.8834 7.65492L84.8834 1.65492H99.8834C100.55 -0.0117425 103.083 -1.14508 107.883 7.65492C113.883 18.6549 112.883 14.6549 114.883 23.6549C116.483 30.8549 118.217 39.9882 118.883 43.6549C120.883 46.6549 124.283 53.8549 121.883 58.6549C119.483 63.4549 124.883 73.3216 127.883 77.6549L144.883 84.6549H154.883C155.217 84.6549 157.683 86.2549 164.883 92.6549C176.083 103.855 184.217 113.322 186.883 116.655L198.883 130.655C200.55 131.322 204.083 134.055 204.883 139.655C205.883 146.655 204.883 151.655 204.883 156.655C204.883 160.655 200.883 165.655 198.883 167.655C200.55 165.988 200.483 163.655 186.883 167.655C164.883 196.655 164.883 200.655 164.883 205.655C164.883 210.655 172.883 217.655 174.883 223.655C174.883 242.055 168.217 252.655 164.883 255.655V264.655C161.55 266.988 154.883 271.855 154.883 272.655C154.883 273.655 153.883 263.655 144.883 272.655C124.083 286.255 111.55 289.655 107.883 289.655C104.55 292.655 95.2834 296.855 84.8834 289.655C71.8834 280.655 68.8834 277.655 62.8834 277.655C58.0834 277.655 50.8834 277.655 47.8834 277.655L29.8834 272.655H22.8835V285.155L34.3834 289.655C37.8834 291.488 45.4834 295.455 47.8834 296.655C50.2834 297.855 55.5501 299.822 57.8834 300.655C57.8834 302.988 57.8834 308.155 57.8834 310.155C57.8834 312.655 57.8834 313.155 50.8834 316.655C45.2834 319.455 29.8835 323.488 22.8835 325.155L15.8835 333.155V335.655C15.0501 338.322 12.7834 342.855 10.3834 339.655C4.38344 332.455 1.88344 321.322 1.38344 316.655V310.155C0.716776 306.322 -0.216557 298.255 1.38344 296.655C3.38344 294.655 4.38342 284.655 4.88342 281.155C5.28342 278.355 8.71677 265.988 10.3834 260.155L15.8835 252.155L34.3834 247.155H47.8834L57.8834 240.155C60.8834 238.655 67.8834 234.755 71.8834 231.155C76.8834 226.655 75.8835 233.155 84.8834 223.655C92.0834 216.055 95.5501 208.488 96.3834 205.655C102.783 202.055 106.717 199.155 107.883 198.155L112.883 189.155L107.883 185.155H99.3834L101.883 178.155C102.717 176.322 103.883 172.155 101.883 170.155C99.3834 167.655 100.883 161.155 96.3834 160.655C91.8834 160.155 74.8834 160.655 71.8834 160.655C68.8834 160.655 64.8834 160.655 57.8834 160.655C50.8834 160.655 53.3834 158.655 42.3834 160.655C39.9834 160.655 55.0501 153.322 62.8834 149.655C64.0501 151.155 66.3834 153.255 66.3834 149.655C66.3834 146.055 64.0501 141.488 62.8834 139.655H47.8834C44.2168 137.988 35.4834 135.155 29.8834 137.155C24.2835 139.155 18.2168 141.322 15.8835 142.155L10.3834 149.655C8.71676 149.155 5.88341 147.555 7.88342 145.155C9.88344 142.755 14.0501 134.488 15.8835 130.655Z" stroke="black"/>
</svg>
