<svg width="998" height="712" viewBox="0 0 998 712" fill="none" xmlns="http://www.w3.org/2000/svg">
<path d="M17 404H3L0 665.5C1.16667 665.5 3.9 665.1 5.5 663.5C7.1 661.9 9.5 661.5 10.5 661.5H29.5H34.5C37.3333 662.167 43.4 663.5 45 663.5C47 663.5 55.5 663 57 663.5C58.2 663.9 65.8333 665 69.5 665.5C70.8333 667 73.8 670.5 75 672.5C76.5 675 79 679 79 680.5C79 682 81 684.5 82.5 688.5C83.7 691.7 84 694.833 84 696V702L79 711.5H124C125.167 711.333 127.9 711.1 129.5 711.5C131.1 711.9 134.167 710 135.5 709V705.5V700.5L137.5 693L149.5 686L161 683C164 681.333 171 676.4 175 670C179 663.6 184 667.333 186 670H207C213 670 219 671 235 656C247.8 644 253.667 643 255 644L358 638L364 644H441L456.5 706V626L576.5 562L735 501.5L894 485.5L806.5 530L904 522L989 473H998V80L994 58.5L977.5 55.5L968 63L961.5 58.5C961.5 52 951.7 60.1 932.5 74.5C929.5 83.5 926.43 76.6718 917 80C908.5 83 899 62.5 895.5 76.5L885.5 72L877.5 76.5L868 83L863 97V109.5H857.5C849 105.5 843 95 843 95C843 95 839 95 834 100C834 100 833.2 110.6 826 85C822.8 67.4 818.667 70.1667 818 74.5L813 80H808L799 78L793 83L787 92H779L766.5 83L723 78L720 73.5L691 59.5L686.5 52.5L676 48H669L662 50L643.5 39C638.5 33 635 32.5 636 24C636.771 17.4482 632 21.3333 631 24L622 31L617 24L605 0H490L485 8.00001C484 7.66668 476.8 7.20001 472 8.00001C467.2 8.80001 456.5 13 454.5 15L440 10L431.5 12L427 17.5L423 24C423 25 420 28.5 420 32.5C420 36.5 415.5 40 418.5 42.5V50.5L417 57L411 61.5L404 68.5L397 80L390 86L385.5 92L372.5 110L367 115.5L356 107H349.5L346.5 112C338.5 114 341.2 116.7 338 121.5C334.8 126.3 336.5 123.5 334 128C332 126.667 324.6 124.8 319 128C312 132 317 130 312 134C308 137.2 302.833 141 302.5 144C301.889 149.5 298.2 148.5 295 152.5C291.8 156.5 290 160 286 162L274 177.5H265.5C264.167 178.167 265.7 179.1 262.5 181.5C259.3 183.9 255.5 183 255.5 187L253.5 193L249.5 200H244L237 206L235.5 213L218 235.5V241.5L205.5 254L201.5 251.5L198 256C198.333 258 196.95 262.446 196.5 266.5C195 280 191 280 191 280C191 280 190 287 187 291C184.6 294.2 180.667 299.667 179 302H167.5C166.833 302 165.5 310.8 153.5 318C141.5 325.2 140 326.667 145 326C142 328.667 135 334.8 131 338C126 342 128 341 124 344C120.8 346.4 112.667 351 109 353C106.333 354.667 100 358.8 96 362C91 366 84 370 80 370C76 370 75 369 70 370C65 371 63 374 59 378C55.8 381.2 54.3333 385.333 54 387L41 394L35 404H17Z" fill="#26B837"/>
</svg>
