<svg width="1008" height="1298" viewBox="0 0 1008 1298" fill="none" xmlns="http://www.w3.org/2000/svg">
<path d="M26 404.5H12L9 666C10.1667 666 12.9 665.6 14.5 664C16.1 662.4 18.5 662 19.5 662H38.5H43.5C46.3333 662.667 52.4 664 54 664C56 664 64.5 663.5 66 664C67.2 664.4 74.8333 665.5 78.5 666C79.8333 667.5 82.8 671 84 673C85.5 675.5 88 679.5 88 681C88 682.5 90 685 91.5 689C92.7 692.2 93 695.333 93 696.5V702.5L88 712H133C134.167 711.833 136.9 711.6 138.5 712C140.1 712.4 143.167 710.5 144.5 709.5V706V701L146.5 693.5L158.5 686.5L170 683.5C173 681.833 180 676.9 184 670.5C188 664.1 193 667.833 195 670.5H216C222 670.5 228 671.5 244 656.5C256.8 644.5 262.667 643.5 264 644.5L367 638.5L373 644.5H450L465.5 706.5V626.5L585.5 562.5L744 502L903 486L815.5 530.5L913 522.5L998 473.5H1007V80.5L1003 59L986.5 56L977 63.5L970.5 59C970.5 52.5 960.7 60.6 941.5 75C938.5 84 935.43 77.1718 926 80.5C917.5 83.5 908 63 904.5 77L894.5 72.5L886.5 77L877 83.5L872 97.5V110H866.5C858 106 852 95.5 852 95.5C852 95.5 848 95.5 843 100.5C843 100.5 842.2 111.1 835 85.5C831.8 67.9 827.667 70.6667 827 75L822 80.5H817L808 78.5L802 83.5L796 92.5H788L775.5 83.5L732 78.5L729 74L700 60L695.5 53L685 48.5H678L671 50.5L652.5 39.5C647.5 33.5 644 33 645 24.5C645.771 17.9482 641 21.8333 640 24.5L631 31.5L626 24.5L614 0.5H499L494 8.50001C493 8.16668 485.8 7.70001 481 8.50001C476.2 9.30001 465.5 13.5 463.5 15.5L449 10.5L440.5 12.5L436 18L432 24.5C432 25.5 429 29 429 33C429 37 424.5 40.5 427.5 43V51L426 57.5L420 62L413 69L406 80.5L399 86.5L394.5 92.5L381.5 110.5L376 116L365 107.5H358.5L355.5 112.5C347.5 114.5 350.2 117.2 347 122C343.8 126.8 345.5 124 343 128.5C341 127.167 333.6 125.3 328 128.5C321 132.5 326 130.5 321 134.5C317 137.7 311.833 141.5 311.5 144.5C310.889 150 307.2 149 304 153C300.8 157 299 160.5 295 162.5L283 178H274.5C273.167 178.667 274.7 179.6 271.5 182C268.3 184.4 264.5 183.5 264.5 187.5L262.5 193.5L258.5 200.5H253L246 206.5L244.5 213.5L227 236V242L214.5 254.5L210.5 252L207 256.5C207.333 258.5 205.95 262.946 205.5 267C204 280.5 200 280.5 200 280.5C200 280.5 199 287.5 196 291.5C193.6 294.7 189.667 300.167 188 302.5H176.5C175.833 302.5 174.5 311.3 162.5 318.5C150.5 325.7 149 327.167 154 326.5C151 329.167 144 335.3 140 338.5C135 342.5 137 341.5 133 344.5C129.8 346.9 121.667 351.5 118 353.5C115.333 355.167 109 359.3 105 362.5C100 366.5 93 370.5 89 370.5C85 370.5 84 369.5 79 370.5C74 371.5 72 374.5 68 378.5C64.8 381.7 63.3333 385.833 63 387.5L50 394.5L44 404.5H26Z" fill="#26B837" stroke="black"/>
</svg>
