<svg id="Livello_1" data-name="Livello 1" xmlns="http://www.w3.org/2000/svg" viewBox="0 0 204.36 47.64"><defs><style>.cls-1{fill:#1d1d1b;}</style></defs><path class="cls-1" d="M201.21,317.22a7.19,7.19,0,0,1,1-2,6.73,6.73,0,0,0,1-2.1,3.78,3.78,0,0,1,.36-1.44q.18-.36,1.74-3.72,1.44-3.06,2.46-3.3T211,301.5a61.83,61.83,0,0,1,5.16-5.7q2.94-2.88,4.14-2.88.66,0,.84.9a64.2,64.2,0,0,1,1.38,12.48,5.32,5.32,0,0,1-.06,1q-.72,6.36-1.62,8.16a5.45,5.45,0,0,0-.6,2.58q0,.12,0,.45t0,.51a7.69,7.69,0,0,1,.06,1.14,17.49,17.49,0,0,1-.24,2.88,34,34,0,0,0-.36,4.2q0,2.4-.36,2.76a21.19,21.19,0,0,0-1,3.6,13.08,13.08,0,0,1-1.26,4,1.76,1.76,0,0,1-1.5.9,1.17,1.17,0,0,1-1.2-.84,3.72,3.72,0,0,1-.12-.9,5.08,5.08,0,0,1,.72-3.18,9.13,9.13,0,0,0,.75-2.73q.45-2.37.69-4.77.12-1.44.12-1.56,0-.6-.24-.6a.84.84,0,0,0-.36.06,23.22,23.22,0,0,1-6.78,1.08,7.87,7.87,0,0,0-2.13.18,2.21,2.21,0,0,0-1,.84,1.52,1.52,0,0,1-1.26.84l-1.32-.12a6.74,6.74,0,0,0-1.32-.12,1,1,0,0,0-.69.21,3.24,3.24,0,0,0-.51,1,33.69,33.69,0,0,0-1,3.48q-1,4.32-2.64,5.1a3.17,3.17,0,0,1-1.08.3q-1,0-1-1.32a7.16,7.16,0,0,1,1-3.12,7.83,7.83,0,0,0,1-3.06,24,24,0,0,1,1.41-5.91q1.41-4.35,2.19-5.25A1.22,1.22,0,0,0,201.21,317.22Zm17.46-5.94a47.23,47.23,0,0,1,.6-4.8,43.68,43.68,0,0,0,.6-5.1v-.3a4.15,4.15,0,0,0-.78-2.4q-.42-.6-.66-.6a9.52,9.52,0,0,0-2,1.8q-2.1,2.1-2.1,2.52a6.87,6.87,0,0,1-1.62,2.4q-3.54,4.5-3.54,6.3a3.78,3.78,0,0,1-1.38,2.22,6.43,6.43,0,0,0-1.56,2.64,3.54,3.54,0,0,1-.9,1.86,4.4,4.4,0,0,0-1.44,2.76.4.4,0,0,0,.18.36,9.59,9.59,0,0,0,3.6.36,37.27,37.27,0,0,0,4.62-.3l1-.12.81-.09.51,0a1.77,1.77,0,0,1,1.32.66,2.77,2.77,0,0,0,.54.54q.18,0,.54-1.2a22.36,22.36,0,0,0,.66-4,12.86,12.86,0,0,1,.57-2.85A10.44,10.44,0,0,0,218.67,311.28Z" transform="translate(-195.27 -292.92)"/><path class="cls-1" d="M247.89,304.68a1.94,1.94,0,0,1,1.14-.54,1.56,1.56,0,0,1,1.08.54.89.89,0,0,1,.24.66,15.86,15.86,0,0,1-1.5,4.2,8.72,8.72,0,0,0-.66,2.76q-.3,2.52-1,6.27a30.46,30.46,0,0,1-1,4.41,2.41,2.41,0,0,0-.06.66,2.67,2.67,0,0,0,.24,1.2,33.47,33.47,0,0,1,1.32,3.84q.78,2.88,1.2,3.18a.63.63,0,0,0,.54.24,2.16,2.16,0,0,0,1.23-.51,3.42,3.42,0,0,0,1-1.23,2,2,0,0,1,1.8-1.38,1.49,1.49,0,0,1,1.26.66,2.43,2.43,0,0,1,.6,1.44,3.68,3.68,0,0,1-1.26,2.34,7,7,0,0,1-5.22,2.46,2.67,2.67,0,0,1-2.19-.78,14.13,14.13,0,0,1-1.59-3.78q-.66-2-1.5-2t-1.14,1.8a12.6,12.6,0,0,1-1.71,3.84,13.72,13.72,0,0,1-2.55,3.36,10.87,10.87,0,0,1-7,2.28,11.87,11.87,0,0,1-2.58-.15q-.42-.15-.42-1,0-1.2-.42-1.2t-.48-4.26a22,22,0,0,1,.54-6.06,6,6,0,0,1,1.68-2.64,3.49,3.49,0,0,0,.87-1.26,6.33,6.33,0,0,0,.21-1.92v-1a11.12,11.12,0,0,1,.9-4.59q.9-2,2.16-2.31,1.08-.24,1.08-.72t1.5-.36a6.36,6.36,0,0,1,3,.54,12.35,12.35,0,0,1,2.67,2.49q1.71,2,1.71,2.49t.42.48q.42,0,.66-2.46a50.18,50.18,0,0,1,1.35-7.68Q247.05,305.4,247.89,304.68Zm-8.22,14q-1.62-2-2.94-2a2.06,2.06,0,0,0-1.5.78,4.18,4.18,0,0,0-1.14,2.76,3.08,3.08,0,0,0,.24,1.26,4.44,4.44,0,0,1,.18,1.38,13.13,13.13,0,0,1-.24,2.46,8.74,8.74,0,0,1-.63,2.13,1,1,0,0,1-.93.45q-.9,0-1.83,1.53a5.63,5.63,0,0,0-.93,2.91,2,2,0,0,0,.18.9,2.32,2.32,0,0,1,.48,1.5l-.06.06V335q0,.18.3,1.68t1.32,1.56a1.67,1.67,0,0,0,1.26-.72,1.76,1.76,0,0,1,1.38-.72q.6,0,2.67-2.46a18.75,18.75,0,0,0,2.79-4.08,14.68,14.68,0,0,0,1-3.48,22.82,22.82,0,0,0,.42-3.9,4.4,4.4,0,0,0-.06-.9A9.54,9.54,0,0,0,239.67,318.72Z" transform="translate(-195.27 -292.92)"/><path class="cls-1" d="M266.13,309.54a1.92,1.92,0,0,1,1.32-.48q.54,0,.54.3t.72.36q.48,0,1.38.9a8,8,0,0,1,1.44,1.92.51.51,0,0,0,.42.3,4.32,4.32,0,0,0,1.32-.72,4.92,4.92,0,0,1,2.28-1q.54,0,.54.48,0,.84-1.56,2.34a13.16,13.16,0,0,0-2.7,3.54,7.35,7.35,0,0,1-1.44,2.22,3.51,3.51,0,0,0-1,1.62,13.53,13.53,0,0,1-1.5,2.64,9.21,9.21,0,0,0-1,1.74,2.88,2.88,0,0,1-.78,1.38,11.29,11.29,0,0,0-1.38,2.34,7,7,0,0,1-1.08,2,5.49,5.49,0,0,0-1.38,3.66q0,1.2.9,1.2a.86.86,0,0,0,.6-.3,1.71,1.71,0,0,1,1.26-.42q.78,0,.78-.3t1.5-1.32a7.14,7.14,0,0,0,2.34-3.12q.78-1.92,1.44-2.22a2,2,0,0,1,.48-.12,1.24,1.24,0,0,1,.75.24.72.72,0,0,1,.33.6,7.7,7.7,0,0,1-1,2.52,19.26,19.26,0,0,1-1.89,3.06,8,8,0,0,1-3,2.25,9.2,9.2,0,0,1-3.87.93,4.23,4.23,0,0,1-2.19-.39,1.9,1.9,0,0,1-.57-1.65,7.9,7.9,0,0,1,.06-1.08,13.34,13.34,0,0,1,1.26-4.41,14,14,0,0,1,2.28-3.93,1.81,1.81,0,0,0,.66-1.14,2.78,2.78,0,0,1,.66-1.32q.3-.42,1.62-2.64a32.48,32.48,0,0,1,2.22-3.36,5.28,5.28,0,0,0,1-1.44q.12-1.2.12-1.56,0-.78-.18-.78-.36,0-.36-.54a1.93,1.93,0,0,0-.57-1.2q-.57-.66-1-.66l-.06.06h-.12a1.08,1.08,0,0,0-.42,1,4.44,4.44,0,0,1-.66,2q-1.2,2.22-1.32,2.4-1.38,2.52-2.7,2.52-.66,0-.66-.9,0-1.5,2.58-4.74a4.38,4.38,0,0,0,1-2.82Q265.47,310,266.13,309.54Z" transform="translate(-195.27 -292.92)"/><path class="cls-1" d="M294,315.66q.48-.48.72-.48t1,.66a1.84,1.84,0,0,1,.42,1.26,4.11,4.11,0,0,1-.06.78,26.4,26.4,0,0,1-2,7l-1.26,2.55q-.9,1.83-1.38,2.67a5.1,5.1,0,0,0-.72,2.4,2.35,2.35,0,0,0,.78,1.8,1.43,1.43,0,0,0,1,.48,4.94,4.94,0,0,0,1.5-.3,8.76,8.76,0,0,0,3.6-3q1.92-2.4,1.92-3.06a3.28,3.28,0,0,1,.84-1.56,2.84,2.84,0,0,1,.75-.69q.15,0,.57.45a1.27,1.27,0,0,1,.3.84,8.57,8.57,0,0,1-.42,2,13.3,13.3,0,0,1-2.67,4.53q-2.07,2.49-3.21,2.49-1,0-1.2.42t-1.92.36a5.08,5.08,0,0,1-2.7-.48,4.79,4.79,0,0,1-1.47-2.1,7.07,7.07,0,0,1-.63-2.7,1.66,1.66,0,0,1,.24-1,.49.49,0,0,0,.12-.36q0-.36-.48-.36a3,3,0,0,0-1.38.42,7.28,7.28,0,0,1-3.24.54q-2,0-2-.48,0-.3,1.59-1.2a22.1,22.1,0,0,1,3.21-1.5,11.75,11.75,0,0,0,3.45-2.67,14.09,14.09,0,0,0,2.85-3.63l.42-.81q.24-.45.42-.87t.24-.54a5.17,5.17,0,0,0,.36-2A2.55,2.55,0,0,1,294,315.66Zm4.5-13.56q.54-1.38,1.32-1.38.42,0,.9.72a3.49,3.49,0,0,1,.42,1.68,3.21,3.21,0,0,1-.48,1.77,1.36,1.36,0,0,1-1.14.75,1.26,1.26,0,0,1-.9-.42A1.67,1.67,0,0,1,298,304,5.9,5.9,0,0,1,298.53,302.1Z" transform="translate(-195.27 -292.92)"/><path class="cls-1" d="M318.09,310.14a14.39,14.39,0,0,1,2.1-.18,5.86,5.86,0,0,1,3.09.78,11.72,11.72,0,0,1,2.91,2.88,9.48,9.48,0,0,1,2.4,5.88,6.6,6.6,0,0,1-.06,1,27.68,27.68,0,0,1-.81,4.62q-.57,2.1-1.05,2.22t-.54,1.2a7.38,7.38,0,0,0,.9,3.24q.9,1.8,1.8,1.8a6.49,6.49,0,0,0,2.67-1.32,11.91,11.91,0,0,0,2.73-2.34q.12-.12.87-1.05t1.11-1.41a4.61,4.61,0,0,0,1.08-1.8q0-.3.78-1.08a1.49,1.49,0,0,1,1-.54q.84,0,.84,1.8a4.91,4.91,0,0,1-1.26,3.54q-1.32,1.44-1.32,1.92t-2.82,3a13.82,13.82,0,0,1-2.88,2,9,9,0,0,1-2.94.33,9.59,9.59,0,0,1-2.7-.24,3,3,0,0,1-1.32-1.26,4.65,4.65,0,0,1-1.08-2.22q0-1.2-.72-1.2-.42,0-.6.54-.48,1.14-3.57,2.49a13.79,13.79,0,0,1-5.37,1.35,5.76,5.76,0,0,1-4.59-2.43,9.05,9.05,0,0,1-1.95-5.85,10.83,10.83,0,0,1,.6-4.2,4.63,4.63,0,0,1,2.28-2.16,5.24,5.24,0,0,0,1.65-1.14,2.94,2.94,0,0,0,.57-1.56,9.78,9.78,0,0,1,.9-2.88,4.09,4.09,0,0,0,.6-2.1,3,3,0,0,1,1.47-2.25A7.36,7.36,0,0,1,318.09,310.14ZM310.29,330q.24,0,.51-.81t.54-1.95q.27-1.14.27-1.2a1.76,1.76,0,0,0,.12-.66q0-.42-.24-.42-.48,0-1.08,1a5.37,5.37,0,0,0-.6,2.64Q309.81,330,310.29,330Zm12.48-14a2.86,2.86,0,0,0-2.52-1.86,5.12,5.12,0,0,0-3.42,1.92,7.76,7.76,0,0,0-1.59,2.28,14.4,14.4,0,0,0-.51,3.36,17.14,17.14,0,0,1-.78,4.68,9.39,9.39,0,0,0-.6,4.08q0,3.06.9,3.06t3.48-1.92a26.36,26.36,0,0,0,4.38-4,12.79,12.79,0,0,0,2.58-3.87q.54-1.38,1-1.38t.48-1.56a2.61,2.61,0,0,0-1.26-2.28A7.18,7.18,0,0,1,322.77,316Z" transform="translate(-195.27 -292.92)"/><path class="cls-1" d="M354.51,314q2.46-2.58,2.94-2.58a2.35,2.35,0,0,1,1.32.51q.72.51.72,1a.65.65,0,0,0,.54.72q.48.18.48,4.44a15.81,15.81,0,0,1-.36,4.2,1.33,1.33,0,0,0-.06.42q0,.42.3.42.66,0,1.26-1.26a35.49,35.49,0,0,1,2.22-4.2,12,12,0,0,1,2.16-2.4q1.8-1.62,2.76-1.62h.06a.75.75,0,0,1,.63.36,3.85,3.85,0,0,1,.15,1.38q0,1.26-.06,2.28a24.3,24.3,0,0,1-2.28,9.48,6.46,6.46,0,0,0-.84,2.46,1.63,1.63,0,0,1-.48,1.2,1.09,1.09,0,0,0-.36.78.85.85,0,0,0,.24.57.71.71,0,0,0,.54.27.92.92,0,0,0,.36-.12,11.92,11.92,0,0,0,2.4-1.32q1.2-.84,1.2-1.14,0-.54,2.31-3t2.79-2.46q.54,0,.54.84a2.47,2.47,0,0,1-.84,2,2.15,2.15,0,0,0-.9,1.56q0,1.14-5,5.52-1.92,1.74-3.12,1.74a2.75,2.75,0,0,1-2-1.32,4.83,4.83,0,0,1-.84-2.94,10.75,10.75,0,0,1,1.26-4.8,10.16,10.16,0,0,0,1.08-2.88,3.9,3.9,0,0,1,.78-1.8,6.85,6.85,0,0,0,1.26-3.9q0-.48-.18-.48-.42,0-1.8,1.71a5.86,5.86,0,0,0-1.38,2.19,7.32,7.32,0,0,1-1.5,2.58,19.76,19.76,0,0,0-2.1,3.3,36.48,36.48,0,0,1-2.58,4.62q-1.56,2.4-2,2.4-.78,0-.78-1.74a4.76,4.76,0,0,1,.48-2.16,5.82,5.82,0,0,0,.72-2.94,3.13,3.13,0,0,1,.36-1.92,5.56,5.56,0,0,0,.66-2.64q.06-.6.54-4.86.12-1.44.12-1.8,0-1.44-.54-1.44t-2.94,2.4a33.59,33.59,0,0,0-3.27,4.23A7.49,7.49,0,0,0,350,325a7.73,7.73,0,0,1-1.38,2.22,5.6,5.6,0,0,0-1.44,3.6q0,.72,0,1.08a3.23,3.23,0,0,1-.12.66.77.77,0,0,1-.21.39.6.6,0,0,1-.36.09l-.66-.12a1.49,1.49,0,0,1-1.08-1.56,9.2,9.2,0,0,1,.72-2.88,42.76,42.76,0,0,1,3.87-7.71A37.8,37.8,0,0,1,354.51,314Z" transform="translate(-195.27 -292.92)"/><path class="cls-1" d="M389.49,311.34a12.11,12.11,0,0,1,4-.6q1.5,0,1.5.36t.6.42q.66,0,1.89,2.22a12.77,12.77,0,0,1,1.53,4.08,46.79,46.79,0,0,1,.66,5,6.05,6.05,0,0,1-.78,2.76,20.78,20.78,0,0,1-3.09,3.87q-2.49,2.67-5.25,5.13a7.76,7.76,0,0,1-2.94,1.62,5.83,5.83,0,0,1-1.74.36,6.13,6.13,0,0,1-1.86-.42q-3.24-1.2-3.24-5.46a28.27,28.27,0,0,1,1-6.42,26.66,26.66,0,0,1,1.32-4.2,3.93,3.93,0,0,0,.6-1.8,8.73,8.73,0,0,1,1.2-3.27,7.31,7.31,0,0,1,1.86-2.67A25.66,25.66,0,0,1,389.49,311.34Zm4.86,2.28a1.72,1.72,0,0,0-.9-.3,3.51,3.51,0,0,0-1.56.6,3.66,3.66,0,0,1-1.74.66,3.79,3.79,0,0,0-2.31,1.47,4,4,0,0,0-1.29,2.49,1.31,1.31,0,0,0,.27.9,2.86,2.86,0,0,0,1.11.6q2.1.66,2.1,1.74t-2,1a3.26,3.26,0,0,0-2.19.54,8,8,0,0,0-1.35,2.7,14.77,14.77,0,0,0-.84,3.6q0,.9.54,1.08t0,.84a1.36,1.36,0,0,0-.36.9q0,1,1.2,1.32a1.25,1.25,0,0,0,.48.06q1.26,0,4.26-1.74a19.38,19.38,0,0,0,3.57-3.3q2.43-2.64,2.43-3.24t.36-.6q.36,0,.84-.84a2.11,2.11,0,0,0,.3-1.14,21.52,21.52,0,0,0-.48-3.06Q395.67,314.46,394.35,313.62Z" transform="translate(-195.27 -292.92)"/></svg>