<svg id="Livello_1" data-name="Livello 1" xmlns="http://www.w3.org/2000/svg" viewBox="0 0 304.43 46.44"><defs><style>.cls-1{fill:#1d1d1b;}</style></defs><path class="cls-1" d="M163.47,314.59a11.18,11.18,0,0,1,4.32-1.14,1.62,1.62,0,0,1,1.44.54,5.9,5.9,0,0,0,2.1,1.32,6.57,6.57,0,0,1,2.79,2.88,13.05,13.05,0,0,1,1.65,4.8,5.12,5.12,0,0,1,.06.9q0,4.68-5.16,7.56a3.74,3.74,0,0,1-2,.42,9.58,9.58,0,0,1-3.51-.72,6.63,6.63,0,0,1-2.73-1.8q-1.32-1.62-1.92-1.62t-3.72,2.88a27.72,27.72,0,0,0-4.44,5.94c-1.32,2.33-2,4.14-2,5.46v.36q.12,1.14.54,1.35a8.22,8.22,0,0,0,2.58.21h.66c4.72,0,7.08-.55,7.08-1.68q0-.72-1.26-1.5a20,20,0,0,1-3-2.46q-1.23-1.26-1.23-1.92,0-1,1.65-1.92a8.12,8.12,0,0,1,3.57-1.08q2.22-.18,4.74-.18c4.72,0,7.34.27,7.86.78a14,14,0,0,1,2.43,3.24,7.81,7.81,0,0,1,.63,3.36,6.51,6.51,0,0,1-.27,2.49,3.3,3.3,0,0,1-1.65.93,5.73,5.73,0,0,1-1.62.3,1.07,1.07,0,0,1-.78-.24,1.06,1.06,0,0,0-.78-.3,1.59,1.59,0,0,0-1,.39,1.13,1.13,0,0,0-.48.87q0,.72,1.2,1,.9.12,2,1.65a4.9,4.9,0,0,1,1.11,2.79,2.48,2.48,0,0,1-1.41,2,9.56,9.56,0,0,1-3.63,1.26,57.81,57.81,0,0,1-8.52.84q-5.46,0-7.8-2.16a3.15,3.15,0,0,0-1.92-1,.77.77,0,0,1-.57-.3,1,1,0,0,1-.27-.72q0-1.08-2.64-3.3a8.81,8.81,0,0,1-2.76-3.54,38.56,38.56,0,0,1-1-7.26q-.12-1.92-.12-2.28a3.49,3.49,0,0,1,1-2.58,2.73,2.73,0,0,0,1.14-1.8q0-.76,1.44-1.62a5.89,5.89,0,0,0,2.22-2.64,21.41,21.41,0,0,1,3.72-4.44,23.5,23.5,0,0,1,4-3.18A61.67,61.67,0,0,1,163.47,314.59Z" transform="translate(-143.79 -313.45)"/><path class="cls-1" d="M185.85,327.49c.72-1.11,1.38-1.68,2-1.68s1.56.74,2.76,2.22,1.88,2.22,2.28,2.22a5.09,5.09,0,0,0,2.16-1,4.39,4.39,0,0,1,2.58-.9q.9,0,1.56.06a5,5,0,0,1,4.38,1.86,6.13,6.13,0,0,1,2,4.38,22.75,22.75,0,0,1-.42,3.42,8.16,8.16,0,0,1-1.8,4.38,3.7,3.7,0,0,0-1.2,2.52,1.59,1.59,0,0,1-.51,1.38,3.82,3.82,0,0,1-2,.36q-1.26,0-3-1.92a8.22,8.22,0,0,1-2.52-5.64q0-.84-.54-.84a2.29,2.29,0,0,0-1.14.66,2.14,2.14,0,0,0-.6,1.38q-.12,1-.12,4a23.65,23.65,0,0,1-.36,5.16,3.68,3.68,0,0,1-1.68,2.16,5,5,0,0,0-1.62,3.12q-.42,2.28-1.26,2.76a1.49,1.49,0,0,1-.66.18q-1,0-1.44-1.44a3.59,3.59,0,0,0-1.86-1.56l-1.56-.84v-3a22.24,22.24,0,0,1,1.2-7.62q1.14-2.88,1.92-10.68A11.55,11.55,0,0,1,185.85,327.49Zm7.08,24.3a2,2,0,0,1,1.26-.36,7.07,7.07,0,0,1,3.45,1.08,6.85,6.85,0,0,1,2.67,2.46,7.11,7.11,0,0,1,.9,3.24,1.81,1.81,0,0,1-.3,1.08,2.11,2.11,0,0,1-1.56.6,5.08,5.08,0,0,1-2.82-1,11.59,11.59,0,0,0-2.22-1.2c-1-.32-1.7-1.53-2-3.66a7.36,7.36,0,0,1-.06-1A1.51,1.51,0,0,1,192.93,351.79Z" transform="translate(-143.79 -313.45)"/><path class="cls-1" d="M221.55,327a3.71,3.71,0,0,1,1.68-.36,14.43,14.43,0,0,1,1.56.12,14.31,14.31,0,0,0,1.44.12q1,0,4.08,2.88,3.48,3.3,3.48,5.1a6.06,6.06,0,0,1-.78,2.52,7.56,7.56,0,0,0-.9,3.36,5.33,5.33,0,0,0,1.08,3.18,5.32,5.32,0,0,1,1.2,2.94,2.18,2.18,0,0,1-1,1.89,4.45,4.45,0,0,1-2.64.69q-2,0-2,.18a16.94,16.94,0,0,0,.66,1.8,8.3,8.3,0,0,1,.72,2.88,1.74,1.74,0,0,1-.75,1.5,3,3,0,0,1-1.83.54,3.78,3.78,0,0,1-2-.51,2.49,2.49,0,0,1-1.17-1.47,11.69,11.69,0,0,0-1.5-3,5.27,5.27,0,0,1-1.08-3.24q0-2.82-2.16-2.82a1.66,1.66,0,0,0-1.56.84,8.92,8.92,0,0,0-.72,3.12q-.42,4-1.74,4-1.08,0-2.34-2.64a10.35,10.35,0,0,1-1.14-4.68c0-.15,0-.46,0-.9s0-.8,0-1.08,0-.71,0-1.17,0-.77,0-.93a4.43,4.43,0,0,0-1-3.12,3.17,3.17,0,0,1-1-2v-.36a2.2,2.2,0,0,1,.33-1,1.55,1.55,0,0,1,1.05-.24l.51,0,.63,0,.6,0,.48,0a2.15,2.15,0,0,0,1.29-.3,5.58,5.58,0,0,0,1-1.38,45.15,45.15,0,0,1,2.88-4.11A11.23,11.23,0,0,1,221.55,327Zm3.48,9.42c-.12-.75-.52-1.14-1.2-1.14a2,2,0,0,0-1.68,1.08,3.39,3.39,0,0,0-.66,1.68q0,1,1.38,1.2h.24a1.79,1.79,0,0,0,1.41-.66,2.46,2.46,0,0,0,.57-1.68,1.05,1.05,0,0,0,0-.24A.93.93,0,0,1,225,336.37Z" transform="translate(-143.79 -313.45)"/><path class="cls-1" d="M250.53,327.25l2.16-.18a2.75,2.75,0,0,1,.72.06q1.56.12,5.16.24a18.2,18.2,0,0,1,3.48.27,4.36,4.36,0,0,1,1.56,1,6.8,6.8,0,0,1,1.56,2.52,4.07,4.07,0,0,1,.24,1.26q0,1-1.86,1.68a5.43,5.43,0,0,0-2.52,2.4,29.54,29.54,0,0,1-3.06,3.78q-1.74,1.62-1.74,2.16t-1.32,1.65a3.89,3.89,0,0,1-2,1.05q-.9,0-.9.36c0,.21-.2.34-.6.42s-.9.47-1.74,1.38-1.26,1.54-1.26,1.86q0,.18,1.62.18,2.76,0,8-.42c.4,0,.92-.06,1.56-.06a6.16,6.16,0,0,1,2.91.57,5.54,5.54,0,0,1,1.95,2,5.68,5.68,0,0,1,1,2.58,1.66,1.66,0,0,1-.42,1.14q-.54.78-9.9.78l-2.79,0-3.27,0h-6.6l-1.38-1.2c-.88-.72-1.32-1.29-1.32-1.74s-.12-.72-.36-.84-.36-.51-.36-1.08q0-1.32.66-1.5a3.91,3.91,0,0,0,1.26-.9,2.3,2.3,0,0,1,1-.6,32,32,0,0,0,3.3-3l2.94-2.79q2-1.89,2.4-2.25,4.92-4.74,4.92-5.76,0-.48-.9-.48a42.73,42.73,0,0,0-4.56.54,8.28,8.28,0,0,1-1.2.06,5.32,5.32,0,0,1-1-.06,11,11,0,0,1-3-2.31q-2.19-2.07-2.19-2.61t.9-1.29a2.55,2.55,0,0,1,1.38-.81.76.76,0,0,1,.78.42.7.7,0,0,0,.6.24A33.75,33.75,0,0,0,250.53,327.25Zm18.6,21.36a2.24,2.24,0,0,1,1-.54,5.5,5.5,0,0,1,1.68,1,5.23,5.23,0,0,0,2.1,1.14q.84.18,1.95,2a6.08,6.08,0,0,1,1.11,2.94,2.34,2.34,0,0,1-.51,1.77,3.31,3.31,0,0,1-2.07.45,3.44,3.44,0,0,1-2.16-.57,20,20,0,0,1-2.58-3.09,6,6,0,0,1-1.38-3.3A2.21,2.21,0,0,1,269.13,348.61Z" transform="translate(-143.79 -313.45)"/><path class="cls-1" d="M288,325l1-.12.78-.09.45,0a3,3,0,0,1,.9.18q.84.24.84,1.44a3.41,3.41,0,0,0,.42,1.92,1.9,1.9,0,0,1,0,1.62,6.8,6.8,0,0,0-.42,2.82,7.71,7.71,0,0,1-.72,3.48,14.54,14.54,0,0,0-.9,4.26q-.18,2.16-.78,7.56-.36,3.24-.36,4.44a4,4,0,0,0,.18,1.44,3.22,3.22,0,0,1,.36,1.26q0,.78-1.26,1.26a4.15,4.15,0,0,1-1.44.36,6.81,6.81,0,0,1-1.26-.24q-1.38-.42-1.38-.66a6.43,6.43,0,0,0-1.2-1.68,4.35,4.35,0,0,1-1.44-2.94,8.39,8.39,0,0,1,.24-1.5,23,23,0,0,0,.66-4.5,30.85,30.85,0,0,1,1.44-7.86,19.5,19.5,0,0,0,.54-2.85q.3-2.13.48-2.85a16.27,16.27,0,0,0,.6-3.66,5.08,5.08,0,0,1,.51-2.37A2.68,2.68,0,0,1,288,325Zm5.82,20.88a1.2,1.2,0,0,1,1-.3,27.39,27.39,0,0,1,2.76.48,6.4,6.4,0,0,1,2.82,1.74,9,9,0,0,1,1.38,1.5,3.11,3.11,0,0,1,.24,1.44v.78a7.23,7.23,0,0,1-.36,2.82,2.05,2.05,0,0,1-2,1,2,2,0,0,1-.9-.18,2.52,2.52,0,0,0-1.32-.36q-1.74,0-3.12-4.08a13.34,13.34,0,0,1-.84-3.6A1.62,1.62,0,0,1,293.85,345.91Z" transform="translate(-143.79 -313.45)"/><path class="cls-1" d="M316.29,329.17q1.74-1.86,2.7-1.86,1.5,0,4.2,2.43t2.94,4.05a2.75,2.75,0,0,1,.06.72,16.28,16.28,0,0,1-.3,2.94,19,19,0,0,1-.54,2.58,17.81,17.81,0,0,1-1.2,2.46,3.92,3.92,0,0,0-.42,1q0,.54,2.52.84a32.36,32.36,0,0,1,4.26.75,3,3,0,0,1,1.38,1A4.76,4.76,0,0,1,333,349a1.26,1.26,0,0,1-.18.66,2.53,2.53,0,0,1-1.32.66q-.9.18-1.59.36t-1.29.39l-.87.3a5.42,5.42,0,0,0-.81.39l-.66.36q-.12.06-.75.51l-.81.57c-.16.08-.72.45-1.68,1.08q-2,1.32-8,1.32a15.74,15.74,0,0,1-3.3-.3,6.53,6.53,0,0,1-2.67-2.25,8.41,8.41,0,0,1-1.95-3.15,25.23,25.23,0,0,1-.42-4.8,13.4,13.4,0,0,1,.48-4.14q.78-2.1,1.26-2.22t.78-1.26a10,10,0,0,1,1.62-3.15,9.8,9.8,0,0,1,2.34-2.55A19,19,0,0,0,316.29,329.17Zm-.6,16q-1.8-.6-1.92-.6-.42,0-1.11,1.35a5.17,5.17,0,0,0-.69,2.19c0,.45.11.72.33.84a4.57,4.57,0,0,0,1.41.3h.36a6.83,6.83,0,0,0,3.54-1.32q2.28-1.44,2.28-1.8t-1.26-.36A12.39,12.39,0,0,1,315.69,345.19Zm.6-7a.42.42,0,0,0-.84,0q0,.36.42.36T316.29,338.17Zm19.26,4.2a5.69,5.69,0,0,1,1.38-.18,3.58,3.58,0,0,1,2.88,1.38,11.64,11.64,0,0,1,1.92,4.38,8.72,8.72,0,0,1,.36,2.22c0,1.2-.44,1.95-1.32,2.22a4.19,4.19,0,0,1-1,.12q-2.64,0-2.64-.66a8.53,8.53,0,0,0-1.44-1.92,15.74,15.74,0,0,1-2.16-3.06,4.14,4.14,0,0,1-.54-1.62,3.66,3.66,0,0,1,.3-1.14A2.63,2.63,0,0,1,334,343,3.89,3.89,0,0,1,335.55,342.37Z" transform="translate(-143.79 -313.45)"/><path class="cls-1" d="M348.15,326.05q.54-1.08,1.14-1.08c.44,0,1.14.48,2.1,1.41a5.59,5.59,0,0,1,1.62,2.19,19.73,19.73,0,0,1,.6,4.8c0,1.05-.1,2.82-.3,5.34q-.24,2.88-.24,5.58a7.35,7.35,0,0,0,.06,1.32q.36,2,2.94,2a12.52,12.52,0,0,0,3-.42,1.82,1.82,0,0,1,.54-.06,7,7,0,0,1,2.94,1,8.68,8.68,0,0,1,2.22,1.41,8.86,8.86,0,0,1,1.26,2.07,6.48,6.48,0,0,1,.84,2.64q0,.6-1.44,1.32a4.85,4.85,0,0,1-1.32.42,3.61,3.61,0,0,1-1.26-.36,3.7,3.7,0,0,0-1.38-.36,4.2,4.2,0,0,0-1.32.24,3.55,3.55,0,0,1-1.2.24,5.19,5.19,0,0,1-1.8-.42,5.76,5.76,0,0,0-1.68-.36,6.74,6.74,0,0,0-2,.42,14.45,14.45,0,0,1-1.68.42q-.42,0-1-.72a19.49,19.49,0,0,0-1.86-2.22,10.31,10.31,0,0,1-1.86-2.52,7.3,7.3,0,0,1-.42-2.82q0-.48.12-3,.24-4.62.78-8.52A40.16,40.16,0,0,0,348,331a11,11,0,0,0-.06-1.38q-.12-1.2-.12-1.68A5.38,5.38,0,0,1,348.15,326.05Zm24.18,22.5a1.64,1.64,0,0,1,1.44-.84,4.72,4.72,0,0,1,2.28,1,4.79,4.79,0,0,0,1.8,1q.42,0,1.38,1.5a9.12,9.12,0,0,1,1.2,2.46,7.2,7.2,0,0,1,.12,1,3.12,3.12,0,0,1-.75,2.16,2.49,2.49,0,0,1-1.95.84,2.85,2.85,0,0,1-.66-.06q-1.26-.24-3.36-3.42t-2-4.14A2.39,2.39,0,0,1,372.33,348.55Z" transform="translate(-143.79 -313.45)"/><path class="cls-1" d="M386.85,326.05Q387.39,325,388,325c.44,0,1.14.48,2.1,1.41a5.59,5.59,0,0,1,1.62,2.19,19.73,19.73,0,0,1,.6,4.8c0,1.05-.1,2.82-.3,5.34q-.24,2.88-.24,5.58a7.35,7.35,0,0,0,.06,1.32q.36,2,2.94,2a12.52,12.52,0,0,0,3-.42,1.82,1.82,0,0,1,.54-.06,7,7,0,0,1,2.94,1,8.68,8.68,0,0,1,2.22,1.41,8.86,8.86,0,0,1,1.26,2.07,6.48,6.48,0,0,1,.84,2.64q0,.6-1.44,1.32a4.85,4.85,0,0,1-1.32.42,3.61,3.61,0,0,1-1.26-.36,3.7,3.7,0,0,0-1.38-.36,4.2,4.2,0,0,0-1.32.24,3.55,3.55,0,0,1-1.2.24,5.19,5.19,0,0,1-1.8-.42,5.76,5.76,0,0,0-1.68-.36,6.74,6.74,0,0,0-2,.42,14.45,14.45,0,0,1-1.68.42q-.42,0-1-.72a19.49,19.49,0,0,0-1.86-2.22,10.31,10.31,0,0,1-1.86-2.52,7.3,7.3,0,0,1-.42-2.82q0-.48.12-3,.24-4.62.78-8.52a40.16,40.16,0,0,0,.42-4.92,11,11,0,0,0-.06-1.38q-.12-1.2-.12-1.68A5.38,5.38,0,0,1,386.85,326.05ZM411,348.55a1.64,1.64,0,0,1,1.44-.84,4.72,4.72,0,0,1,2.28,1,4.79,4.79,0,0,0,1.8,1q.42,0,1.38,1.5a9.12,9.12,0,0,1,1.2,2.46,7.2,7.2,0,0,1,.12,1,3.12,3.12,0,0,1-.75,2.16,2.49,2.49,0,0,1-1.95.84,2.85,2.85,0,0,1-.66-.06q-1.26-.24-3.36-3.42t-2-4.14A2.39,2.39,0,0,1,411,348.55Z" transform="translate(-143.79 -313.45)"/><path class="cls-1" d="M435.39,327a3.71,3.71,0,0,1,1.68-.36,14.43,14.43,0,0,1,1.56.12,14.31,14.31,0,0,0,1.44.12q1,0,4.08,2.88,3.48,3.3,3.48,5.1a6.06,6.06,0,0,1-.78,2.52,7.56,7.56,0,0,0-.9,3.36,5.33,5.33,0,0,0,1.08,3.18,5.32,5.32,0,0,1,1.2,2.94,2.18,2.18,0,0,1-1,1.89,4.45,4.45,0,0,1-2.64.69q-2,0-2,.18a16.94,16.94,0,0,0,.66,1.8,8.3,8.3,0,0,1,.72,2.88,1.74,1.74,0,0,1-.75,1.5,3,3,0,0,1-1.83.54,3.78,3.78,0,0,1-1.95-.51,2.49,2.49,0,0,1-1.17-1.47,11.69,11.69,0,0,0-1.5-3,5.27,5.27,0,0,1-1.08-3.24q0-2.82-2.16-2.82a1.66,1.66,0,0,0-1.56.84,8.92,8.92,0,0,0-.72,3.12q-.42,4-1.74,4-1.08,0-2.34-2.64a10.35,10.35,0,0,1-1.14-4.68c0-.15,0-.46,0-.9s0-.8,0-1.08,0-.71,0-1.17,0-.77,0-.93a4.43,4.43,0,0,0-1-3.12,3.17,3.17,0,0,1-1-2v-.36a2.2,2.2,0,0,1,.33-1,1.55,1.55,0,0,1,1.05-.24l.51,0,.63,0,.6,0,.48,0a2.15,2.15,0,0,0,1.29-.3,5.58,5.58,0,0,0,1.05-1.38,45.15,45.15,0,0,1,2.88-4.11A11.23,11.23,0,0,1,435.39,327Zm3.48,9.42c-.12-.75-.52-1.14-1.2-1.14a2,2,0,0,0-1.68,1.08,3.39,3.39,0,0,0-.66,1.68q0,1,1.38,1.2H437a1.79,1.79,0,0,0,1.41-.66,2.46,2.46,0,0,0,.57-1.68,1.05,1.05,0,0,0,0-.24A.93.93,0,0,1,438.87,336.37Z" transform="translate(-143.79 -313.45)"/></svg>