<svg id="Livello_1" data-name="Livello 1" xmlns="http://www.w3.org/2000/svg" viewBox="0 0 512.02 106.95"><defs><style>.cls-1{fill:#1d1d1b;}</style></defs><rect class="cls-1" y="28.93" width="21.14" height="76.04"/><path class="cls-1" d="M94.44,397.18v10.23h.44q7.74-12.29,22.23-12.29,11.56,0,18.72,7.83T143,423.21v49H123.1V426.14a14.28,14.28,0,0,0-3.43-9.95c-2.29-2.53-5.48-3.81-9.58-3.81a14,14,0,0,0-10.9,4.83q-4.31,4.83-4.31,12.44v42.56H75v-75Z" transform="translate(-41.6 -367.62)"/><path class="cls-1" d="M245.55,462.24l-.19,0c-2.76.61-4.6.37-5.48-.71s-1.48-3.36-1.48-6.45v-36c0-16.52-9.7-24.9-28.84-24.9-9.84,0-17.5,2.45-22.77,7.26s-8.06,11.3-8.27,19.22l0,.92h13.21l0-.87c.37-10.63,6.25-15.8,18-15.8,5.14,0,9.17,1.09,12,3.25s4.1,5.13,4.1,9.16a7,7,0,0,1-.9,3.64,10.28,10.28,0,0,1-2,2.56,10.06,10.06,0,0,1-3.74,1.63c-1.87.52-3.45.91-4.69,1.16s-3.15.55-6,.95c-4.32.66-8,1.33-10.89,2a60.17,60.17,0,0,0-9,2.82,24.22,24.22,0,0,0-7.51,4.42,18.89,18.89,0,0,0-4.54,6.59,23.75,23.75,0,0,0-1.76,9.5c0,7.09,2.53,12.6,7.53,16.37s11.29,5.6,19,5.6c10.16,0,18.48-3.7,24.76-11,1.63,6.81,6.19,10.26,13.57,10.26a18.15,18.15,0,0,0,6.76-1.24l.57-.23V462.24ZM225.92,433v11.33c0,4.8-1.93,9.3-5.75,13.35s-9.29,6.08-16.32,6.08c-9.92,0-14.74-3.73-14.74-11.39a11.81,11.81,0,0,1,1.07-5.24,11.66,11.66,0,0,1,2.57-3.6A15.19,15.19,0,0,1,197.3,441a37.19,37.19,0,0,1,5.56-1.72l6.87-1.39C216.78,436.54,222.22,434.89,225.92,433Z" transform="translate(-41.6 -367.62)"/><path class="cls-1" d="M290.75,474.41q-15.08,0-23.85-12.14h-.29v9.94H254.76V367.62h11.85v39.79h.29q9.23-12.57,24.29-12.58,14.63,0,23.4,10.61t8.78,29.18q0,18.28-8.71,29T290.75,474.41Zm-.73-10q10.61,0,16.05-8.11t5.45-21.58q0-13.31-5.45-21.58t-15.9-8.26q-11.93,0-18.11,8.41t-6.18,21.43q0,13.31,6.18,21.5T290,464.46Z" transform="translate(-41.6 -367.62)"/><path class="cls-1" d="M335.07,472.21V396.59h9.06v75.62Z" transform="translate(-41.6 -367.62)"/><path class="cls-1" d="M384.22,474.11q-14.06,0-21.65-7.09a25.14,25.14,0,0,1-8.19-17.63h7.31c.48,6.05,2.76,10.66,6.8,13.83s9.29,4.75,15.73,4.75,11.31-1.46,14.92-4.39a14.46,14.46,0,0,0,5.41-11.85q0-6.14-4.09-9.28t-16.54-6.07q-13.74-3.22-20.4-7.61t-6.66-13.61a17.44,17.44,0,0,1,7.31-14.7Q371.49,395,382.6,395q23.86,0,26.92,21.5h-7a15.4,15.4,0,0,0-6-11.19q-5.28-4-13.91-4-8.91,0-13.75,3.8A12.1,12.1,0,0,0,364,415q0,6.15,4.91,9t17.61,5.93q13,3.07,19.1,7.53t6.07,14.41a20.13,20.13,0,0,1-7.32,15.95Q397.1,474.12,384.22,474.11Z" transform="translate(-41.6 -367.62)"/><path class="cls-1" d="M418.16,449h4.38c.6,6.74,3.1,11.91,7.54,15.51s10.65,5.42,18.65,5.42q11.1,0,17.4-4.69a15,15,0,0,0,6.3-12.72q0-7.75-5.2-11.64t-19.08-6.36q-14.2-2.48-20.63-7t-6.43-13a16.79,16.79,0,0,1,6.72-13.89q6.72-5.27,18.73-5.27,24,0,27.34,21.8H469.5q-2.64-17.85-23-17.85c-7,0-12.3,1.39-15.8,4.17a13.39,13.39,0,0,0-5.27,11,11.51,11.51,0,0,0,5.41,10.17q5.42,3.58,18.73,5.93,14.47,2.49,20.84,7.31t6.36,14.63A18.32,18.32,0,0,1,469.2,468q-7.6,5.7-20.47,5.71-14.34,0-22.09-6.8T418.16,449Z" transform="translate(-41.6 -367.62)"/><path class="cls-1" d="M518.8,473.39q-15.66,0-25.24-11.41T484,434.33q0-16.24,9.51-27.5t25.31-11.27q15.8,0,25.31,11.19t9.51,27.43q0,16.38-9.51,27.8T518.8,473.39Zm-23.11-12.07a31.59,31.59,0,0,0,46.23-.08q9.5-10.1,9.49-27.06T542,407.49a32.06,32.06,0,0,0-46.3,0q-9.51,9.87-9.51,26.84T495.69,461.32Z" transform="translate(-41.6 -367.62)"/></svg>