<svg id="Livello_1" data-name="Livello 1" xmlns="http://www.w3.org/2000/svg" viewBox="0 0 189.24 54.18"><defs><style>.cls-1{fill:#1d1d1b;}</style></defs><path class="cls-1" d="M87.74,238.58a4.33,4.33,0,0,1,2.64-.84,7.13,7.13,0,0,1,4,1.26,6.21,6.21,0,0,1,2.58,3.12,5.69,5.69,0,0,1,.3,1.92A7.89,7.89,0,0,1,97,246a37.16,37.16,0,0,0-.84,7q-.18,4-.9,14.82-.48,6.6-.48,9.66a3.82,3.82,0,0,0,.06,1q.36.78,4.92,2.28a21.43,21.43,0,0,0,4.8,1.14,6.34,6.34,0,0,0,1.74-.3,15.29,15.29,0,0,1,4.44-.6,14.79,14.79,0,0,1,5.19.84q2.25.84,2.49,2.1a2.85,2.85,0,0,1,.06.66q0,3-3.6,4.44a8.43,8.43,0,0,1-2.88.6,16.55,16.55,0,0,1-3-.3,62.73,62.73,0,0,1-12.54-4,10.68,10.68,0,0,0-4.5-1,8,8,0,0,1-4.44-1.74,13.9,13.9,0,0,1-1.71-1.38,1.44,1.44,0,0,1-.39-1,3.76,3.76,0,0,1,.12-1q.36-1.44.78-20.7.3-13.92.48-16.56T87.74,238.58Z" transform="translate(-85.4 -236)"/><path class="cls-1" d="M151.76,240.32a7.5,7.5,0,0,1,3.24-1.5,3.56,3.56,0,0,1,2.46,1.5,4.37,4.37,0,0,1,1.32,2.76,4.39,4.39,0,0,0,.6,2.46,41.12,41.12,0,0,1,1.38,6.54,37.22,37.22,0,0,1,.6,5.16,16.26,16.26,0,0,1-.9,4.5q-1.8,6.3-2.85,9.12t-2.46,6q-1.41,3.18-3.15,7.92a4.45,4.45,0,0,1-1.26,1.8A12.8,12.8,0,0,1,148,288.2a15.67,15.67,0,0,1-6.3,2,9.39,9.39,0,0,1-2.94-.54q-7.5-2.52-12.12-13.92a42.17,42.17,0,0,1-3.24-15.84,17.63,17.63,0,0,1,.87-6.09q.87-2.31,2.49-2.31a3,3,0,0,1,1.32.36,4,4,0,0,1,1.95,2.52,30.2,30.2,0,0,1,.69,6.3,46.09,46.09,0,0,0,2.88,14.76q3.36,8.34,7,8.34,1,0,2.64-3.54t5.1-12.72a40.76,40.76,0,0,0,3.06-14,23.16,23.16,0,0,0-.54-5,44,44,0,0,1-1-5.7,2,2,0,0,1,.27-1.05,2.22,2.22,0,0,1,.51-.63Q150.86,240.92,151.76,240.32Z" transform="translate(-85.4 -236)"/><path class="cls-1" d="M176.06,255.74a8.72,8.72,0,0,1,2.76-.48,7.33,7.33,0,0,1,5.4,2.16,17.33,17.33,0,0,1,2.16,3.21,18.13,18.13,0,0,1,1.68,3.75,54.1,54.1,0,0,1,.48,7.08q.18,4.38.39,5.64a10,10,0,0,0,1,2.88,11.89,11.89,0,0,0,2.52,3.27q1.68,1.59,2.52,1.59a2.31,2.31,0,0,1,1.23.72q.81.72.81,1.14a1.38,1.38,0,0,1-.72,1.05,2.48,2.48,0,0,1-1.44.51,4.58,4.58,0,0,1-2-.54,15.2,15.2,0,0,1-3.24-2.37,13.85,13.85,0,0,1-2.58-2.79q-.72-1.14-1.2-1.14a4.6,4.6,0,0,0-1.5.78,14.93,14.93,0,0,1-4.86,1.95,24.45,24.45,0,0,1-5.88.81,8.31,8.31,0,0,1-2.34-.3q-2.28-.78-3.66-4-1.26-3-1.26-10.32a16,16,0,0,1,.48-4.92,4.49,4.49,0,0,1,1.62-2,3.92,3.92,0,0,1,2.28-.81h.3l.33,0,.27,0a.61.61,0,0,0,.63-.39,15.8,15.8,0,0,0,.45-2,8.71,8.71,0,0,1,1.17-3A4.45,4.45,0,0,1,176.06,255.74Zm3.72,2.76a3.55,3.55,0,0,0-1.68-.54,2.34,2.34,0,0,0-1.92,1.38,13.19,13.19,0,0,0-1.8,6.9q0,2-.48,2t-.9-1.14q-.6-1.14-.9-.84a8.24,8.24,0,0,0-1.26,2.85,13,13,0,0,0-.66,3.57,21.62,21.62,0,0,0,.78,5.07q.78,3.09,1.38,3.51a4.5,4.5,0,0,0,2.58.54q4,0,5.94-1.44a10,10,0,0,0,2-2.64,9,9,0,0,0,1.08-4.56,9.8,9.8,0,0,0-.6-3.54A4.54,4.54,0,0,1,183,268a2.78,2.78,0,0,1,.36-1.14,2.9,2.9,0,0,0,.36-1.26,4.92,4.92,0,0,0-.24-1.44,13.46,13.46,0,0,0-1.62-3.54A5.93,5.93,0,0,0,179.78,258.5Z" transform="translate(-85.4 -236)"/><path class="cls-1" d="M233.18,236.54A4.63,4.63,0,0,1,235,236a7.64,7.64,0,0,1,2,.48q1.92.6,1.92,3.72a39.5,39.5,0,0,1-.78,6.66q-.42,2.4-1.14,6.72t-1.29,7q-.57,2.73-1.41,5.73-3.54,11.88-3.54,18.36a23.12,23.12,0,0,1-.24,3.66,1.16,1.16,0,0,1-.9.9,3.37,3.37,0,0,1-.78.12,3.91,3.91,0,0,1-2.25-.72,5.57,5.57,0,0,1-2.31-4,6.35,6.35,0,0,1,.24-1.62,37.72,37.72,0,0,0,1-6q.3-3.54,1.56-10.44a66.63,66.63,0,0,0,1-6.72q0-.54-2.64-1.14a18.72,18.72,0,0,1-5.4-2.61,23.81,23.81,0,0,1-5-4.23q-2.16-2.4-2.82-2.4t-.72,1.08a98.53,98.53,0,0,0-2,19.56q0,1.62.06,2.22.12,1.8.12,2.58,0,5.82-1.68,6.78a1.86,1.86,0,0,1-.84.18,5.52,5.52,0,0,1-2-.54,6,6,0,0,1-1-.42,7.84,7.84,0,0,1-.66-.45,1.49,1.49,0,0,1-.51-.87q-.15-.6-.33-1.2a9.92,9.92,0,0,1-.27-2l-.18-2.73q-.09-1.35-.21-3.87-.06-1.38-.06-4.14a107.13,107.13,0,0,1,1.74-19.38,11.47,11.47,0,0,1,.78-2.91,2.21,2.21,0,0,1,1.38-.93,14.21,14.21,0,0,0,2.94-1.2,5.11,5.11,0,0,1,2.28-.6q4.62,0,10.44,8.28a26,26,0,0,0,3.27,4,4,4,0,0,0,2.37,1.17,1.94,1.94,0,0,0,1.83-1,13.77,13.77,0,0,0,1-4.2q.72-5.28,1.8-10.68A2.73,2.73,0,0,1,233.18,236.54Z" transform="translate(-85.4 -236)"/><path class="cls-1" d="M253.64,255.74a8.72,8.72,0,0,1,2.76-.48,7.33,7.33,0,0,1,5.4,2.16,17.33,17.33,0,0,1,2.16,3.21,18.13,18.13,0,0,1,1.68,3.75,54.1,54.1,0,0,1,.48,7.08q.18,4.38.39,5.64a10,10,0,0,0,1.05,2.88,11.89,11.89,0,0,0,2.52,3.27q1.68,1.59,2.52,1.59a2.31,2.31,0,0,1,1.23.72q.81.72.81,1.14a1.38,1.38,0,0,1-.72,1.05,2.48,2.48,0,0,1-1.44.51,4.58,4.58,0,0,1-2-.54,15.2,15.2,0,0,1-3.24-2.37,13.85,13.85,0,0,1-2.58-2.79q-.72-1.14-1.2-1.14a4.6,4.6,0,0,0-1.5.78,14.93,14.93,0,0,1-4.86,1.95,24.45,24.45,0,0,1-5.88.81,8.31,8.31,0,0,1-2.34-.3q-2.28-.78-3.66-4-1.26-3-1.26-10.32a16,16,0,0,1,.48-4.92,4.49,4.49,0,0,1,1.62-2,3.92,3.92,0,0,1,2.28-.81h.3l.33,0,.27,0a.61.61,0,0,0,.63-.39,15.8,15.8,0,0,0,.45-2,8.71,8.71,0,0,1,1.17-3A4.45,4.45,0,0,1,253.64,255.74Zm3.72,2.76a3.55,3.55,0,0,0-1.68-.54,2.34,2.34,0,0,0-1.92,1.38,13.19,13.19,0,0,0-1.8,6.9q0,2-.48,2t-.9-1.14q-.6-1.14-.9-.84a8.24,8.24,0,0,0-1.26,2.85,13,13,0,0,0-.66,3.57,21.62,21.62,0,0,0,.78,5.07q.78,3.09,1.38,3.51a4.5,4.5,0,0,0,2.58.54q4,0,5.94-1.44a10,10,0,0,0,2-2.64,9,9,0,0,0,1.08-4.56,9.8,9.8,0,0,0-.6-3.54,4.54,4.54,0,0,1-.42-1.56,2.78,2.78,0,0,1,.36-1.14,2.9,2.9,0,0,0,.36-1.26,4.92,4.92,0,0,0-.24-1.44,13.46,13.46,0,0,0-1.62-3.54A5.93,5.93,0,0,0,257.36,258.5Z" transform="translate(-85.4 -236)"/></svg>