<svg id="Livello_1" data-name="Livello 1" xmlns="http://www.w3.org/2000/svg" viewBox="0 0 155.22 54"><defs><style>.cls-1{fill:#1d1d1b;}</style></defs><path class="cls-1" d="M183.26,312.18A9.39,9.39,0,0,0,188,313.5q2.76,0,11.7,2a83.92,83.92,0,0,1,12.06,3.33,20.19,20.19,0,0,0,5,1.68,4.12,4.12,0,0,0,2.7-1.14,3.17,3.17,0,0,0,1.32-2.34,3.67,3.67,0,0,0-1-2.31,2.84,2.84,0,0,0-2-1.23q-.66,0-2.58-2a6.07,6.07,0,0,0-2.46-1.8,30.71,30.71,0,0,0-5.34-.66q-11-.78-14.28-2.82-1.44-.9-1.44-3.42a11.37,11.37,0,0,0-.66-4.14q-.6-1.38-.6-9.48,0-3.84.18-7.26v-.66a2.78,2.78,0,0,0-.42-1.62,6.77,6.77,0,0,0-1.62-1.44,7,7,0,0,0-3.9-1.44,3.82,3.82,0,0,0-3.12,1.62,3.28,3.28,0,0,0-1,1.86,8.49,8.49,0,0,0,.72,2.4q1,2.7,1,9v1.74q0,7.86-1.92,11.7a5.15,5.15,0,0,0-.72,2,6,6,0,0,0,.6,1.92A6.82,6.82,0,0,0,183.26,312.18Z" transform="translate(-179.57 -276.72)"/><path class="cls-1" d="M229.55,314.58a15.75,15.75,0,0,0-1-3.63,15.44,15.44,0,0,1-1-3.69,14.88,14.88,0,0,0-.6-3.42,15.55,15.55,0,0,1-.54-4.32v-1A4.37,4.37,0,0,0,226,296a2.92,2.92,0,0,1-.42-1.92,4.49,4.49,0,0,1,.36-2q.42-.78,2-.78a4.17,4.17,0,0,1,3.21,1.08,5.27,5.27,0,0,1,1,3.6q0,1-.06,1.56t-.06,1.86a26.4,26.4,0,0,0,.3,4,37.88,37.88,0,0,0,1.2,4.95q.78,2.49,1.2,2.49a4.55,4.55,0,0,0,1.74-.9q1.38-.84,3.39-4.62t2.07-5.52a7,7,0,0,1,.84-3.48,2.42,2.42,0,0,1,2.16-1.26,3.92,3.92,0,0,1,1.38.3q2.16.9,2.58,4.26a9.34,9.34,0,0,1,.06,1.14,4.83,4.83,0,0,1-1.44,2.58,20.19,20.19,0,0,0-3.12,5.22,27.68,27.68,0,0,1-2.28,4.74q-.78,1.2-4.2,3t-4.8,1.83H233a4.44,4.44,0,0,1-2.31-1.41A3.33,3.33,0,0,1,229.55,314.58Z" transform="translate(-179.57 -276.72)"/><path class="cls-1" d="M262.07,293.4a3.57,3.57,0,0,1,2.52-1.32,5.47,5.47,0,0,1,3.42,1.74,3,3,0,0,1,.9,2.22,6.75,6.75,0,0,1-.54,2.4q-1,2.4-1,8.52a16.43,16.43,0,0,0,.24,3.36,7.24,7.24,0,0,1,.24,1.74,7.32,7.32,0,0,1-.6,2.34,8.52,8.52,0,0,0-.9,3.6,3.72,3.72,0,0,1-.39,2.07,3.09,3.09,0,0,1-1.77.81,5.06,5.06,0,0,1-.84.12,3.86,3.86,0,0,1-2.22-1.08Q260,319,259,318.3q-.72-.48-1.92-3.72a17.41,17.41,0,0,0-2.16-4.44,3.42,3.42,0,0,1-.84-2.22,4.8,4.8,0,0,1,.84-2.58q.84-1.32,1.62-1.32l1,.12a5.42,5.42,0,0,1,2.94,1.05,3.64,3.64,0,0,1,.78,2.67q.06,2.58.54,2.58a.49.49,0,0,0,.3-.18q.36-.36.36-3.12a11.79,11.79,0,0,0-.42-4,11.93,11.93,0,0,1-.42-1.86q-.18-1.14-.3-2.67t-.18-2.07q-.12-.84-.12-1A3.34,3.34,0,0,1,262.07,293.4Zm.9-15a2.25,2.25,0,0,1,1.92-1.38q1.74,0,2.64,3.06a6.55,6.55,0,0,1,.24,1.38,2.33,2.33,0,0,1-1.62,2.4,3.08,3.08,0,0,1-1.26.24,2.42,2.42,0,0,1-1.95-.9,3.35,3.35,0,0,1-.75-2.22A5.06,5.06,0,0,1,263,278.4Z" transform="translate(-179.57 -276.72)"/><path class="cls-1" d="M285.17,291.06a2.49,2.49,0,0,1,1.5-.48q.18,0,1,.12a5,5,0,0,1,2.1,1,68.13,68.13,0,0,1,6.54,6.69,3.59,3.59,0,0,1,.84,2q0,1-1.62,3a12.89,12.89,0,0,1-2.52,2.7,1.66,1.66,0,0,0-.72,1.38,4.6,4.6,0,0,0,2,3.36,10.75,10.75,0,0,1,2.37,2.79,5.74,5.74,0,0,1,1,2.79,2.08,2.08,0,0,0,.45,1.38,1.52,1.52,0,0,0,1.23.54q.78,0,2.4-2.16a23.62,23.62,0,0,1,2.82-3.27,26.5,26.5,0,0,1,3.78-2.79,8.31,8.31,0,0,1,3.66-1.62,2.84,2.84,0,0,1,1.92.9,2.15,2.15,0,0,1,1,1.62q0,1.38-3.3,3.18a18.56,18.56,0,0,0-4.77,3.51,5.39,5.39,0,0,0-1.77,3.51,3.73,3.73,0,0,1-.66,2,1.84,1.84,0,0,1-1.56.84q-.18,0-1.38-.12t-1.5-.12a6.65,6.65,0,0,0-2.1.3,3.17,3.17,0,0,1-1.08.3,3.76,3.76,0,0,1-1.74-.72,5.06,5.06,0,0,1-2-2.34q-.48-1.38-1.08-1.38-1.26,0-4.2,7.62a10.1,10.1,0,0,1-1.38,2.94,1.19,1.19,0,0,1-.54.12l-1.08-.12a33.48,33.48,0,0,1-5.07-1.17,11.75,11.75,0,0,1-3.51-1.53,4.87,4.87,0,0,1-1-.87,1.68,1.68,0,0,1-.24-1,17.51,17.51,0,0,1,.18-2,54.83,54.83,0,0,1,1-6.21,17.28,17.28,0,0,1,1.26-4.17,3.42,3.42,0,0,1,1.68-1.68q.9-.48.9-.78a13.1,13.1,0,0,0-2.4-2.34,18.55,18.55,0,0,1-2.76-2.73,3.62,3.62,0,0,1-.78-2.19,7,7,0,0,1,.72-2.7,29.21,29.21,0,0,1,2.73-5.46,11,11,0,0,1,3.51-2.4A36.79,36.79,0,0,0,285.17,291.06Zm-1.32,25.5a3.15,3.15,0,0,0-1.74.3,4.81,4.81,0,0,0-1.26,2.31,11.09,11.09,0,0,0-.6,3.45,2,2,0,0,0,1.08,2,1.32,1.32,0,0,0,1.62-.12,17.56,17.56,0,0,0,1.71-3.66A18.76,18.76,0,0,0,286,317Q286,316.56,283.85,316.56Zm2.64-14.94q0-1.86-.66-1.86-.48,0-1,1.26t-1.32,1.2a1.77,1.77,0,0,1-1.32-.9q-.42-.54-.63-.6t-.63.3a1.77,1.77,0,0,0-.6,1.38,2.88,2.88,0,0,0,.72,1.8,2.29,2.29,0,0,0,1.56.9,4.91,4.91,0,0,0,2.22-.78,3.89,3.89,0,0,0,1.44-1A3.85,3.85,0,0,0,286.49,301.62Zm.42,9.3q0-.42-1.2-.42a4.83,4.83,0,0,0-1.92.36q-.6.24-.57.33t.69.33a3.29,3.29,0,0,0,1.08.12Q286.91,311.64,286.91,310.92Z" transform="translate(-179.57 -276.72)"/><path class="cls-1" d="M328,293.4a3.57,3.57,0,0,1,2.52-1.32,5.47,5.47,0,0,1,3.42,1.74,3,3,0,0,1,.9,2.22,6.75,6.75,0,0,1-.54,2.4q-1,2.4-1,8.52a16.43,16.43,0,0,0,.24,3.36,7.24,7.24,0,0,1,.24,1.74,7.32,7.32,0,0,1-.6,2.34,8.52,8.52,0,0,0-.9,3.6,3.72,3.72,0,0,1-.39,2.07,3.09,3.09,0,0,1-1.77.81,5.06,5.06,0,0,1-.84.12,3.86,3.86,0,0,1-2.22-1.08q-1.2-.9-2.22-1.62-.72-.48-1.92-3.72a17.41,17.41,0,0,0-2.16-4.44,3.42,3.42,0,0,1-.84-2.22,4.8,4.8,0,0,1,.84-2.58q.84-1.32,1.62-1.32l1,.12a5.42,5.42,0,0,1,2.94,1.05,3.64,3.64,0,0,1,.78,2.67q.06,2.58.54,2.58a.49.49,0,0,0,.3-.18q.36-.36.36-3.12a11.79,11.79,0,0,0-.42-4,11.93,11.93,0,0,1-.42-1.86q-.18-1.14-.3-2.67t-.18-2.07q-.12-.84-.12-1A3.34,3.34,0,0,1,328,293.4Zm.9-15a2.25,2.25,0,0,1,1.92-1.38q1.74,0,2.64,3.06a6.55,6.55,0,0,1,.24,1.38,2.33,2.33,0,0,1-1.62,2.4,3.08,3.08,0,0,1-1.26.24,2.42,2.42,0,0,1-1.95-.9,3.35,3.35,0,0,1-.75-2.22A5.06,5.06,0,0,1,328.85,278.4Z" transform="translate(-179.57 -276.72)"/></svg>