<svg id="Livello_1" data-name="Livello 1" xmlns="http://www.w3.org/2000/svg" viewBox="0 0 229.89 62.82"><defs><style>.cls-1{fill:#1d1d1b;}</style></defs><path class="cls-1" d="M150.18,204.12a9.55,9.55,0,0,0,1.94-1.62,9.55,9.55,0,0,1,1.94-1.62c.19,0,.6-.32,1.23-1s.93-1.09.93-1.33.39-.79,1.16-1.66a3.2,3.2,0,0,1,2.37-1.15,1.25,1.25,0,0,1,1.3.72c.38,1.06.24,1.58-.43,1.58a1,1,0,0,0-1,.8c-.63,1.92-1.25,2.88-1.87,2.88-.29,0-.53.33-.72,1a1.77,1.77,0,0,1-1.23,1.23c-.67.19-1,.45-1,.79s-.43,1-1.29,1.76a6.31,6.31,0,0,1-2.24,1.48,2.15,2.15,0,0,0-1.36,1.3,4.59,4.59,0,0,1-.9,1.54,1.65,1.65,0,0,1-1.12.69c-.19,0-.29.48-.29,1.44q0,3.74.72,4,.51.13.51,1.8a5.67,5.67,0,0,0,.36,2.37,16.8,16.8,0,0,1,.72,1.59q.21.72,2,.72a10.39,10.39,0,0,0,3-.47,3.18,3.18,0,0,0,2-1.26c.19-.29.67-.43,1.44-.43a2.16,2.16,0,0,0,1.33-.47,2.08,2.08,0,0,1,1.26-.47c.58,0,.87-.14.87-.43s.65-.86,1.94-1.73a25.92,25.92,0,0,0,4-3.31c1.3-1.3,2.16-1.94,2.59-1.94a5.9,5.9,0,0,0,1.73-1.16,5.31,5.31,0,0,1,1.8-1.15c.34,0,.5-.6.5-1.8a4.11,4.11,0,0,1,.65-2.59,4,4,0,0,0,.72-2.38c0-1.29.34-1.94,1-1.94a2.59,2.59,0,0,1,.58.14c.52.2.79,1.76.79,4.68s-.27,4.47-.79,4.61a1.57,1.57,0,0,0-.65,1.51,24.59,24.59,0,0,1-.54,4,15.65,15.65,0,0,1-.9,3.45c0,.1-.14.31-.29.65s-.29.65-.43.94a3.81,3.81,0,0,1-.54.79q-.33.36-.54.36c-.39,0-.79,3.09-1.22,9.29-.25,2.4-.56,3.81-.94,4.24s-.58,1.66-.58,3.68v1.36c0,1.16.09,2,.11,2.45a5.61,5.61,0,0,0,.18,1.26c.1.36.2.58.33.65a1.86,1.86,0,0,0,.61.18,1.1,1.1,0,0,0,.83-.11,1.52,1.52,0,0,0,.17-.9,3,3,0,0,1,1.3-2.23,9.94,9.94,0,0,0,2.27-3.17c.79-1.53,1.26-2.42,1.4-2.66a4.75,4.75,0,0,0,1.08-2.59q0-1.23.51-1.23c.29,0,.65-.26,1.08-.79a.81.81,0,0,1,1.36-.22c.48.39.73,1.3.73,2.74,0,.72-.13,1.08-.36,1.08s-.65.55-1.23,1.66a5.09,5.09,0,0,1-1.51,2.16,1.31,1.31,0,0,0-.58,1.22c0,.62-.14,1-.43,1.15s-.5.79-.5,1.66-.22,1.49-.65,1.73a4.1,4.1,0,0,0-1.22,1.51,6.88,6.88,0,0,1-1.91,2.55,4.61,4.61,0,0,1-2.7.69,5.23,5.23,0,0,1-1.91-.22,1.92,1.92,0,0,1-.83-1.08c-.38-.86-.57-3.65-.57-8.35a51.32,51.32,0,0,1,.5-8.86,35.08,35.08,0,0,0,.5-4.17,4.49,4.49,0,0,1,.65-2.59,3.38,3.38,0,0,0,.72-2.24c0-.81.24-1.32.72-1.51s.65-.81.65-1.87a5.32,5.32,0,0,1,.5-2.59c.34-.58.34-1,0-1.37s-.5-.36-.5-.07-.61.68-1.84,1.33-1.83,1.07-1.83,1.26c0,.34-.46.88-1.37,1.62a6.21,6.21,0,0,1-2.3,1.33,3.63,3.63,0,0,0-1.66.87,4.58,4.58,0,0,1-3.46,1.65q-.93,0-.93.72a.58.58,0,0,1-.65.65.92.92,0,0,0-.86.65c-.29.67-1.61,1-4,1a14.1,14.1,0,0,1-2.38-.14,6.55,6.55,0,0,1-2.16-.54,3.46,3.46,0,0,1-1.15-1.19,6,6,0,0,1-.87-2.8c-.09-1-.33-1.61-.72-1.81s-.72-.79-.72-1.94q0-2.73-1.8-2.73a2.84,2.84,0,0,0-.93.21,1.45,1.45,0,0,0-.79,1.23,42.51,42.51,0,0,0-.15,4.75q0,5.48.58,6c.43.44.67,4.13.72,11.09l.07,10.59H144c.87,0,1.3.21,1.3.64s-.65,1.42-1.95,2.81a12,12,0,0,1-2.23,2,3.77,3.77,0,0,1-1.94.47h-.65c-.57,0-.86-.6-.86-1.66,0-.76.21-1.22.64-1.36q1.38-.51,1.37-11.31,0-4.6-.36-13.25l-.36-8.71h-1.15c-.72,0-1.08-.21-1.08-.65a4,4,0,0,1,.61-1.94c.41-.72.78-1.08,1.12-1.08s.58-.38.58-1.15-.2-1.15-.58-1.15-.82.38-1.15,1.15-.72,1.15-1.15,1.15-.8-.53-.8-1.59a2.4,2.4,0,0,1,1.08-2.23,3.51,3.51,0,0,0,1.37-2.52,25,25,0,0,1,.87-4.1c.43-1.54,1-2.3,1.58-2.3a.77.77,0,0,1,.79.72,32,32,0,0,1,.22,3.88c.09,3.08.21,4.68.36,4.83s.55.14,1.08-.29a3.33,3.33,0,0,1,.86-.51,7.58,7.58,0,0,0,1.08-.57.83.83,0,0,0,.43-.72c0-.43.29-.65.87-.65.43,0,1.17-.62,2.23-1.87s1.58-2.14,1.58-2.67C149.74,204.29,149.89,204.12,150.18,204.12Z" transform="translate(-135.34 -195.77)"/><path class="cls-1" d="M200.58,221.33c0-.19.17-.4.54-.61s.54-.45.54-.69a1,1,0,0,1,.64-.93,2.19,2.19,0,0,1,1.08-.29c.72,0,1.08.26,1.08.79a1.25,1.25,0,0,1-.43.87,4.71,4.71,0,0,0-.72,1.29,2.28,2.28,0,0,1-.93,1.23,1.22,1.22,0,0,0-.72,1.07,1.18,1.18,0,0,1-.29.87c-.24.1-.56.53-.94,1.3a4.52,4.52,0,0,0-.58,1.65c0,.29-.16.43-.5.43a.44.44,0,0,0-.5.51,3.21,3.21,0,0,1-.51,1.47c-.33.6-.62.9-.86.9s-.43.17-.43.51.45.57,1.37.57,1.43-.19,1.58-.57,1-.51,2.59-.51a5.88,5.88,0,0,0,3.6-.93,2.69,2.69,0,0,0,1.23-1.87c0-.48-.32-.72-.94-.72q-.58,0-.72.18a1.11,1.11,0,0,0-.14.68c0,.38-.08.62-.22.72a2.3,2.3,0,0,1-1.15.07q-1.38-.07-1.44-.93t.21-.72c.29,0,.44-.17.44-.51s.82-1.23,2.48-3,2.6-2.63,2.84-2.63.36,1.49.36,4.47.19,4.46.58,4.46a.67.67,0,0,0,.72-.5c.14-.38.84-.58,2.09-.58a6,6,0,0,0,2.88-.5,5.12,5.12,0,0,1,2.3-.58,2.66,2.66,0,0,1,2.16.79,5.66,5.66,0,0,1,.72,3.32q0,1.94-.57,2.16c-.53.19-.87.23-1,.11s-.17-.42-.07-.9a1.22,1.22,0,0,1,0-.22,1.51,1.51,0,0,0,0-.22,3.83,3.83,0,0,0-.58-1.8c-.48-.76-1-1.05-1.51-.86a24.45,24.45,0,0,1-2.7.47,10.43,10.43,0,0,0-2.77.61,2.27,2.27,0,0,1-1.44.5q-.87,0-.87.51a1.11,1.11,0,0,1-.5.93c-.39.29-.58,1.35-.58,3.17s.19,3,.58,3.24a1.11,1.11,0,0,1,.5.94,3.83,3.83,0,0,0,.94,1.65,3.36,3.36,0,0,1,.86,2.09,2.36,2.36,0,0,0,.51,1.51,5.57,5.57,0,0,1,.57,3.1c0,.82-.09,1.22-.28,1.22h-.08a3.54,3.54,0,0,1-.9-1.51,5.67,5.67,0,0,1-.54-1.94,2.18,2.18,0,0,0-.57-1.3,9.3,9.3,0,0,1-1.88-2.73c-.43-.87-.71-1.47-.86-1.8a7.38,7.38,0,0,1-.39-1.66,19,19,0,0,1-.19-3c0-2.21-.14-3.32-.43-3.32l-3.92.4c-2.52.26-4.09.4-4.72.4H197c-.68-.15-1-.05-1,.28s-.27.68-.79.87-.94.74-.94,1.22a1.63,1.63,0,0,1-.58,1.15,6.15,6.15,0,0,0-.93,1.84,8.94,8.94,0,0,1-.87,1.84c-.28.19-.48.93-.57,2.23a9.43,9.43,0,0,0-.07,1.22c0,.43.19.65.57.65a1.34,1.34,0,0,0,1.15-.58c.19-.33.36-.5.51-.5s.14.1.14.29a10.64,10.64,0,0,1-.93,3.09,3.35,3.35,0,0,1-1.12,1.16,2.77,2.77,0,0,1-1.48.64l-.07-.07h-.14c-.2-.09-.29-.6-.29-1.51a2.16,2.16,0,0,0-.58-1.8c-.33-.24-.5-.89-.5-1.94a13.73,13.73,0,0,1,.58-3.61,5.2,5.2,0,0,1,1-2.37.88.88,0,0,0,.58-.79,3.17,3.17,0,0,1,.47-1.51c.31-.58.58-.87.83-.87s.43-.26.43-.79-.17-.94-.51-1.08-.57-.6-.57-1.37.24-1.49.72-1.73a2.41,2.41,0,0,1,.72-.32c.14,0,.24,0,.29.11a1.66,1.66,0,0,1,.07.57c0,.72.52.89,1.58.51.19,0,.49-.51.9-1.37s.68-1.3.83-1.3.79-.74,1.51-2.23a19.6,19.6,0,0,1,1.87-3.31A3.61,3.61,0,0,0,200.58,221.33Z" transform="translate(-135.34 -195.77)"/><path class="cls-1" d="M233.12,229.61q.28,0,.72.9t.72.9c.24,0,.36.14.36.43s.26.67.79,1.15a8.18,8.18,0,0,0,1.8,1.23,1.61,1.61,0,0,1,1,1.51c0,.67.14,1,.43,1s.53.19.72.57a8.61,8.61,0,0,0,1.94,3,2.69,2.69,0,0,1,.8,1.44,2,2,0,0,0,.46.93,1.93,1.93,0,0,1,.47,1,.71.71,0,0,1-.14.5,4,4,0,0,0-.47.87,9.15,9.15,0,0,1-.68,1.26,1.27,1.27,0,0,1-.72.61c-.48.19-.72.46-.72.79s-.48.43-1.44.43-1.37.2-1.37.58-1.06.5-3.17.5a13.38,13.38,0,0,0-3.92.47c-1,.31-1.48.71-1.48,1.19a1.13,1.13,0,0,1-.58.86c-.33.24-.5.77-.5,1.59a8.88,8.88,0,0,1-.58,2.77c-.38,1.13-.69,1.69-.93,1.69s-.22-.41-.22-1.22c0-.15,0-.39,0-.72s0-.63,0-.87q.3-4.89,1.08-5.54a5.79,5.79,0,0,0,.8-1.08c.33-.58,1.24-1.1,2.73-1.58,1-.29,1.56-.32,1.8-.08a2.08,2.08,0,0,0,1.44.36c.82,0,1.3-.16,1.44-.5s.46-.5,1.08-.5.94-.12.94-.36.24-.36.72-.36a2.23,2.23,0,0,0,1.29-.69c.53-.45.8-.83.8-1.11s-.17-.36-.51-.36-.57-.12-.57-.36-.15-.36-.44-.36-.51-.3-.82-.9a3.34,3.34,0,0,1-.47-1.48c0-.29-.19-.43-.58-.43s-.5-.19-.5-.58-.19-.5-.58-.5-.56-.23-.83-.69a2.77,2.77,0,0,1-.39-1.4c0-.53-.24-.79-.72-.79a1.2,1.2,0,0,1-1.15-.87q-.44-.93-.72-.93c-.2,0-.29-.41-.29-1.23s-.17-1.34-.51-1.44-.5-.84-.5-2.09a4,4,0,0,0-.36-2.23c-.24-.24-.17-.84.22-1.8a3.73,3.73,0,0,1,3.16-2.3c.34-.05.52-.15.54-.29a8.55,8.55,0,0,0,0-1.15c0-.29.1-.46.29-.5s.69-.12,1.51-.22a14,14,0,0,1,1.66-.07c1.92,0,3,.24,3.38.72a1.14,1.14,0,0,0,1.08.5c.62,0,.94.17.94.51s.22.42.68.54,1.64.34,3.56.68c1.11.19,1.66.5,1.66.94a.61.61,0,0,1-.47.64,10.69,10.69,0,0,1-2.12.22h-.87c-1.1,0-1.8-.17-2.08-.5a1.32,1.32,0,0,0-1.16-.51,7.94,7.94,0,0,1-1.87-.79,2.81,2.81,0,0,0-1.44-.58,4,4,0,0,0-1.29.29,3.18,3.18,0,0,0-1.8.94,1.42,1.42,0,0,1-.87.5c-.33,0-.5.1-.5.29s-.31.41-.94.5q-.72.07-.9.36a5.18,5.18,0,0,0-.25,1.73C232.73,228.91,232.83,229.61,233.12,229.61Z" transform="translate(-135.34 -195.77)"/><path class="cls-1" d="M262,229.61q.28,0,.72.9t.72.9c.24,0,.36.14.36.43s.26.67.79,1.15a8.18,8.18,0,0,0,1.8,1.23,1.61,1.61,0,0,1,1,1.51c0,.67.14,1,.43,1s.53.19.72.57a8.53,8.53,0,0,0,1.95,3,2.72,2.72,0,0,1,.79,1.44,1.94,1.94,0,0,0,.47.93,2,2,0,0,1,.46,1,.67.67,0,0,1-.14.5,4,4,0,0,0-.47.87,8.19,8.19,0,0,1-.68,1.26,1.27,1.27,0,0,1-.72.61c-.48.19-.72.46-.72.79s-.48.43-1.44.43-1.37.2-1.37.58-1.06.5-3.17.5a13.38,13.38,0,0,0-3.92.47c-1,.31-1.48.71-1.48,1.19a1.14,1.14,0,0,1-.57.86q-.51.36-.51,1.59a9.11,9.11,0,0,1-.57,2.77c-.39,1.13-.7,1.69-.94,1.69s-.22-.41-.22-1.22c0-.15,0-.39,0-.72s0-.63,0-.87q.28-4.89,1.08-5.54a5.82,5.82,0,0,0,.79-1.08c.33-.58,1.24-1.1,2.73-1.58,1-.29,1.56-.32,1.8-.08a2.08,2.08,0,0,0,1.44.36c.82,0,1.3-.16,1.44-.5s.46-.5,1.08-.5.94-.12.94-.36.24-.36.72-.36a2.28,2.28,0,0,0,1.3-.69c.52-.45.79-.83.79-1.11s-.17-.36-.51-.36-.57-.12-.57-.36-.15-.36-.43-.36-.52-.3-.83-.9a3.34,3.34,0,0,1-.47-1.48c0-.29-.19-.43-.58-.43s-.5-.19-.5-.58-.19-.5-.58-.5-.56-.23-.82-.69a2.69,2.69,0,0,1-.4-1.4c0-.53-.24-.79-.72-.79a1.2,1.2,0,0,1-1.15-.87q-.44-.93-.72-.93c-.2,0-.29-.41-.29-1.23s-.17-1.34-.5-1.44-.51-.84-.51-2.09a4,4,0,0,0-.36-2.23c-.24-.24-.17-.84.22-1.8a3.74,3.74,0,0,1,3.17-2.3c.33-.05.51-.15.54-.29s0-.53,0-1.15c0-.29.1-.46.29-.5s.69-.12,1.51-.22a14.11,14.11,0,0,1,1.66-.07c1.92,0,3,.24,3.38.72a1.14,1.14,0,0,0,1.08.5c.62,0,.94.17.94.51s.22.42.68.54,1.65.34,3.57.68c1.1.19,1.65.5,1.65.94a.61.61,0,0,1-.47.64,10.69,10.69,0,0,1-2.12.22h-.86c-1.11,0-1.8-.17-2.09-.5a1.32,1.32,0,0,0-1.15-.51,7.75,7.75,0,0,1-1.88-.79,2.81,2.81,0,0,0-1.44-.58,4,4,0,0,0-1.29.29,3.22,3.22,0,0,0-1.8.94,1.42,1.42,0,0,1-.87.5c-.33,0-.5.1-.5.29s-.31.41-.94.5-.78.17-.9.36a5.18,5.18,0,0,0-.25,1.73C261.6,228.91,261.7,229.61,262,229.61Z" transform="translate(-135.34 -195.77)"/><path class="cls-1" d="M290.86,234.36a30.52,30.52,0,0,1-1,4.25,28.3,28.3,0,0,0-1.05,4.32,28.22,28.22,0,0,1-1,5.15,19.35,19.35,0,0,1-1.48,4.5A1.15,1.15,0,0,1,285,253a.74.74,0,0,1-.65-.54,12.22,12.22,0,0,1-.22-2.34v-1q0-1.87.51-2.16c.33-.14.5-.53.5-1.15a22.93,22.93,0,0,1,.87-4.93,16.31,16.31,0,0,1,1.51-4.36c.33-.48.5-1.7.5-3.67a21.28,21.28,0,0,1,.51-4.75,5.74,5.74,0,0,1,1.15-2.81,9,9,0,0,0,2.73-4.39,7.5,7.5,0,0,1,1.44-2.74,3,3,0,0,0,.94-1.73,1.46,1.46,0,0,1,.43-1.08,1.76,1.76,0,0,1,1.3-.43,1.28,1.28,0,0,1,1.22.51,2.79,2.79,0,0,1,.15.93,9.67,9.67,0,0,1-.26,2.13q-.24,1.11-.54,1.11c-.33,0-.5.39-.5,1.15a3.37,3.37,0,0,1-1.3,2.31,4.82,4.82,0,0,0-1.44,2.37q-.13,1.31-.72,1.44c-.33.1-.5.39-.5.87a22.25,22.25,0,0,1-.9,3.31A22.25,22.25,0,0,0,290.86,234.36Z" transform="translate(-135.34 -195.77)"/><path class="cls-1" d="M324.12,220.32a1.42,1.42,0,0,1,.47-1.08,1.34,1.34,0,0,0,.47-1c0-.76.22-1.15.65-1.15a2.15,2.15,0,0,1,1.08.43,1.75,1.75,0,0,1,.57,1.37,4,4,0,0,1-.72,2.09,6.29,6.29,0,0,0-.86,2.3q-1,8.28-2.16,10.16a10.08,10.08,0,0,0-.5,2.44q-.72,6.19-1,7.49a3.94,3.94,0,0,0-.15,1.73c.1.29.17.43.22.43s.86-1.39,2.16-4.17c.77-1.68,1.39-2.52,1.87-2.52a1.17,1.17,0,0,1,.72.43,2.47,2.47,0,0,1,.51,1.58,1.07,1.07,0,0,1-.29.79,3.93,3.93,0,0,0-.94,1.48,14.05,14.05,0,0,0-.86,2.41,4.77,4.77,0,0,1-.65,1.66.58.58,0,0,0-.29.57,14.89,14.89,0,0,1-.9,2.49,15,15,0,0,0-.9,2.48.83.83,0,0,1-.57.86,4.11,4.11,0,0,0-1.19,1.63,5,5,0,0,0-.69,2c0,.38-.26.74-.79,1.08s-1,.33-1.29,0a4.73,4.73,0,0,1-.36-2.45v-1.73a28.51,28.51,0,0,1,.36-5c0-.24.09-.58.14-1s.12-1,.22-1.58.16-1.13.21-1.51q.64-5.33,1.08-5.69a1.46,1.46,0,0,0,.43-1.08c0-.34,0-.53-.1-.58a.85.85,0,0,0-.54.08,7.17,7.17,0,0,1-1.73.35,3.89,3.89,0,0,1-2-.71q-1.44-.79-1.44-1.23a.38.38,0,0,0-.43-.43.38.38,0,0,1-.43-.43c0-.15-.17-.39-.5-.72s-.44-.87-.44-2c0-.57,0-1,0-1.15a.62.62,0,0,0-.18-.4.93.93,0,0,0-.51-.1.86.86,0,0,0-.64.17,1.5,1.5,0,0,0-.15.83,2,2,0,0,1-.43,1.44,1.67,1.67,0,0,0-.5,1.23,3,3,0,0,1-.58,1.8,5.44,5.44,0,0,0-.94,2.52,15.51,15.51,0,0,1-.64,2.52,15.88,15.88,0,0,0-.65,2.3,10.86,10.86,0,0,1-.43,1.59c-.1.19-.32.28-.65.28a1.11,1.11,0,0,1-1.15-.72,6.54,6.54,0,0,1-.36-2.44,4.94,4.94,0,0,1,.21-1.73c.19-.43.66-1.77,1.41-4s1.16-3.61,1.26-4.14a2.3,2.3,0,0,1,.5-1.29,8,8,0,0,0,1.3-2.17.43.43,0,0,0,.07-.28q0-.51-1.59-.51a13.91,13.91,0,0,0-1.58.08l-2.52.14.36-.86c.34-1.06,1.58-1.59,3.74-1.59a3.74,3.74,0,0,0,1.44-.18,4,4,0,0,0,1.73-3q0-1.08.36-1.29t.72-1.23c.48-1,1.08-1.51,1.8-1.51a1.66,1.66,0,0,1,.94.36,1.09,1.09,0,0,1,.57,1.44,9.93,9.93,0,0,1-1.22,4.11,4,4,0,0,0-.79,2.59c0,.67.17,1.08.5,1.22s.43.5.43,1.23a2.18,2.18,0,0,0,.33,1.22,2.14,2.14,0,0,1,.32,1.15,3.92,3.92,0,0,0,.47,1.73c.31.62.61.94.9.94a2.4,2.4,0,0,1,.79.14.53.53,0,0,1,.22.07c.62,0,1.44-1,2.45-3a36.77,36.77,0,0,0,3.24-9.44q.13-1.14.57-1.29C324,221.23,324.12,220.9,324.12,220.32Z" transform="translate(-135.34 -195.77)"/><path class="cls-1" d="M341.91,226.8a.93.93,0,0,1,.32-.72.85.85,0,0,0,.33-.65c0-.33-1.42-.5-4.25-.5s-4.47-.12-4.75-.36a.6.6,0,0,1-.29-.51c0-.57.62-.86,1.87-.86a2.43,2.43,0,0,0,1.73-.5c.29-.39,1.8-.6,4.53-.65q5.55-.28,6.27-1.08c.29-.34,1.34-.5,3.17-.5a12.35,12.35,0,0,1,2.55.14,2.69,2.69,0,0,1,1.12,1,3.66,3.66,0,0,1,.93,1.87,1.23,1.23,0,0,0,.51,1.08,1,1,0,0,1,.5.79c0,.29.7.91,2.09,1.87,2.21,1.59,3.31,3.41,3.31,5.48a3.33,3.33,0,0,1-1.08,2.52,2.38,2.38,0,0,0-.86,1.51c0,.43.38.65,1,.65a2.19,2.19,0,0,0,1.08-.29,2.09,2.09,0,0,1,2,0c.82.29,1.23.62,1.23,1,0,.68-.68,1-2,1l-.36,0a1.55,1.55,0,0,0-.29,0l-.68,0c-.31,0-.54,0-.69,0a4.67,4.67,0,0,0-.57,0l-.51,0a1.28,1.28,0,0,0-.82.43,3.2,3.2,0,0,0-.18,1.37,2.91,2.91,0,0,1-.51,2,1.79,1.79,0,0,0-.5,1.51,2.81,2.81,0,0,1-.51,1.51,3,3,0,0,0-.5,1.59,3.45,3.45,0,0,1-1.22,2.3,3.83,3.83,0,0,1-2.67,1.29l-.57,0c-.29,0-.53,0-.72,0a4.52,4.52,0,0,0-2.45.44,4.75,4.75,0,0,1-2.45.5,2.51,2.51,0,0,1-1.73-.43c-.24-.34-.77-.51-1.58-.51s-1.15-.14-1.15-.43-.22-.57-.65-.86a2.21,2.21,0,0,0-1.23-.43,1.83,1.83,0,0,1-1.11-.51,1.81,1.81,0,0,0-1-.5c-.29,0-.44-.17-.44-.51a.44.44,0,0,0-.5-.5c-.34,0-.5-.46-.5-1.37s-.12-1.37-.36-1.37-.36-.67-.36-2a13.12,13.12,0,0,1,2.08-6.41,13.17,13.17,0,0,0,1-3.17c.24-1.3.53-2.06.87-2.3a1.92,1.92,0,0,0,.43-1.37,2,2,0,0,1,.57-1.44A1.45,1.45,0,0,0,341.91,226.8Zm-1.08,9.58a1.77,1.77,0,0,1-.51,1,1.86,1.86,0,0,0-.5,1.12,2.94,2.94,0,0,1-.36,1.29,5.62,5.62,0,0,0-.36,2.52,4.16,4.16,0,0,0,.36,2.31,1.57,1.57,0,0,1,.36,1.15c0,.48.17.72.5.72s.51.12.51.36.33.36,1,.36a2.83,2.83,0,0,1,1.87,1l1,1h4q4,0,4-.36c0-.29.29-.51.86-.65s.87-.46.87-.94a2.06,2.06,0,0,1,.5-1.29,2.74,2.74,0,0,0,.5-1.73,1.67,1.67,0,0,1,.51-1.44,2.94,2.94,0,0,0,.5-2.09v-1.66H354.8a3.21,3.21,0,0,0-1.95.36c-.24.24-.77.15-1.58-.28a5.31,5.31,0,0,1-1-.65,1.15,1.15,0,0,1-.22-.79v-.51a2.16,2.16,0,0,1,.29-1.15,2.19,2.19,0,0,1,1.15-.29c.82-.09,1.23,0,1.23.29,0,.14.43.22,1.29.22h1a9.56,9.56,0,0,0,2-.22,1.57,1.57,0,0,0,.79-.86,5.65,5.65,0,0,1,.86-1.37,2.45,2.45,0,0,0,.65-2c0-.81-.19-1.22-.57-1.22s-.63-.27-1.16-.79a10.94,10.94,0,0,0-3.24-2.09,1,1,0,0,1-.64-1c0-.58-.17-.91-.51-1s-.5-.65-.5-1.37-.24-1.15-.72-1.29a1.35,1.35,0,0,1-.33,0l-.28-.07a.33.33,0,0,1-.18-.11h-.15a2.27,2.27,0,0,0-1,.47,2.62,2.62,0,0,0-.83.75,2,2,0,0,1-1.44.65c-1.49.29-2.85,1.71-4.1,4.25a21.81,21.81,0,0,0-1.73,5.11,1.93,1.93,0,0,1-.65,1.37A1.11,1.11,0,0,0,340.83,236.38Z" transform="translate(-135.34 -195.77)"/></svg>