<svg width="1566" height="1046" viewBox="0 0 1566 1046" fill="none" xmlns="http://www.w3.org/2000/svg">
<path d="M247 428C241.667 433.333 208.6 457.6 119 512L87 628V704V844C87 872.8 108.333 936 119 964C148.333 957.333 219.8 937.6 271 912C335 880 307 868 355 844C403 820 459 820 519 808C579 796 543 776 559 756C571.8 740 652.333 714.667 691 704L635 628V540L615 428L583 404C568.333 412 529.4 432 491 448C452.6 464 453.667 454.667 459 448L491 364L427 260L355 236L271 292L247 428Z" fill="#FF383C"/>
<path d="M247 428C241.667 433.333 208.6 457.6 119 512L87 628V704V844C87 872.8 108.333 936 119 964C148.333 957.333 219.8 937.6 271 912C335 880 307 868 355 844C403 820 459 820 519 808C579 796 543 776 559 756C571.8 740 652.333 714.667 691 704L635 628V540L615 428L583 404C568.333 412 529.4 432 491 448C452.6 464 453.667 454.667 459 448L491 364L427 260L355 236L271 292L247 428Z" fill="black" fill-opacity="0.2"/>
<path d="M247 428C241.667 433.333 208.6 457.6 119 512L87 628V704V844C87 872.8 108.333 936 119 964C148.333 957.333 219.8 937.6 271 912C335 880 307 868 355 844C403 820 459 820 519 808C579 796 543 776 559 756C571.8 740 652.333 714.667 691 704L635 628V540L615 428L583 404C568.333 412 529.4 432 491 448C452.6 464 453.667 454.667 459 448L491 364L427 260L355 236L271 292L247 428Z" stroke="black"/>
</svg>
